<svg xmlns="http://www.w3.org/2000/svg" width="602.75" height="466" viewBox="0 0 602.75 466">
  <g id="Grupo_1106158" data-name="Grupo 1106158" transform="translate(-495 -1921.107)">
    <path id="Trazado_889959" data-name="Trazado 889959" d="M7.664,9.969h-4.8V15H1.328V3.625H8.461V4.836H2.867V8.758h4.8Zm7.477,3.781A2.863,2.863,0,0,1,14.117,14.8a2.8,2.8,0,0,1-1.445.367,2.716,2.716,0,0,1-2.156-.883,4.1,4.1,0,0,1-.773-2.75V6.547h1.539v5a3.147,3.147,0,0,0,.4,1.859,1.481,1.481,0,0,0,1.242.508,2.531,2.531,0,0,0,1.355-.332,2.077,2.077,0,0,0,.809-.941V6.547h1.539V15H15.242Zm7.227,1.414A3.576,3.576,0,0,1,19.527,14a4.48,4.48,0,0,1-1.02-3.062v-.344a4.386,4.386,0,0,1,1.051-3.012,3.3,3.3,0,0,1,2.566-1.191,3.067,3.067,0,0,1,2.543,1.055,4.345,4.345,0,0,1,.848,2.8v.813H20.109l-.023.039a3.494,3.494,0,0,0,.563,2.066,1.965,1.965,0,0,0,1.719.793,3.872,3.872,0,0,0,1.371-.223,3.061,3.061,0,0,0,1.012-.613l.6,1a3.7,3.7,0,0,1-1.2.738A4.762,4.762,0,0,1,22.367,15.164ZM22.125,7.6a1.673,1.673,0,0,0-1.332.621,2.938,2.938,0,0,0-.645,1.59l.016.039h3.813V9.727A2.462,2.462,0,0,0,23.523,8.2,1.638,1.638,0,0,0,22.125,7.6Zm6.492-1.055L28.727,7.8a3.069,3.069,0,0,1,1.059-1.043,2.824,2.824,0,0,1,1.449-.371,2.759,2.759,0,0,1,2.117.8,3.515,3.515,0,0,1,.75,2.473V15H32.563V9.7a2.287,2.287,0,0,0-.441-1.586,1.768,1.768,0,0,0-1.348-.469,2.386,2.386,0,0,0-1.207.285,2.072,2.072,0,0,0-.785.8V15H27.242V6.547Zm9.859-2.039V6.547h1.6V7.688h-1.6V12.82a1.149,1.149,0,0,0,.246.836.89.89,0,0,0,.652.242,1.429,1.429,0,0,0,.3-.035,2.2,2.2,0,0,0,.273-.074l.211,1.055a1.36,1.36,0,0,1-.508.23,2.562,2.562,0,0,1-.664.09,1.993,1.993,0,0,1-1.492-.566,2.46,2.46,0,0,1-.555-1.777V7.688H35.594V6.547h1.344V4.508Zm6.75,10.656A3.576,3.576,0,0,1,42.387,14a4.48,4.48,0,0,1-1.02-3.062v-.344a4.386,4.386,0,0,1,1.051-3.012,3.3,3.3,0,0,1,2.566-1.191,3.067,3.067,0,0,1,2.543,1.055,4.345,4.345,0,0,1,.848,2.8v.813H42.969l-.023.039a3.494,3.494,0,0,0,.563,2.066,1.965,1.965,0,0,0,1.719.793,3.872,3.872,0,0,0,1.371-.223,3.061,3.061,0,0,0,1.012-.613l.6,1a3.7,3.7,0,0,1-1.2.738A4.762,4.762,0,0,1,45.227,15.164ZM44.984,7.6a1.673,1.673,0,0,0-1.332.621,2.938,2.938,0,0,0-.645,1.59l.016.039h3.813V9.727A2.462,2.462,0,0,0,46.383,8.2,1.638,1.638,0,0,0,44.984,7.6Zm10.031,5.125a1.026,1.026,0,0,0-.387-.828,3.732,3.732,0,0,0-1.465-.562,6.146,6.146,0,0,1-2.293-.9,1.814,1.814,0,0,1-.8-1.547,2.229,2.229,0,0,1,.879-1.766,3.879,3.879,0,0,1,4.605.047,2.239,2.239,0,0,1,.852,1.82l-.016.047H54.922a1.331,1.331,0,0,0-.48-.992A1.717,1.717,0,0,0,53.227,7.6a1.751,1.751,0,0,0-1.215.367,1.146,1.146,0,0,0-.4.875.927.927,0,0,0,.348.773,3.848,3.848,0,0,0,1.434.5,6.058,6.058,0,0,1,2.359.93,1.872,1.872,0,0,1,.8,1.57,2.226,2.226,0,0,1-.91,1.836,3.754,3.754,0,0,1-2.379.711,3.715,3.715,0,0,1-2.547-.82,2.341,2.341,0,0,1-.883-1.914l.016-.047H51.32a1.424,1.424,0,0,0,.609,1.2,2.358,2.358,0,0,0,1.336.379,2.1,2.1,0,0,0,1.285-.348A1.063,1.063,0,0,0,55.016,12.727Zm7.078-1.8a5.641,5.641,0,0,1,.871-3.289,2.807,2.807,0,0,1,2.441-1.25,3.027,3.027,0,0,1,1.316.273,2.7,2.7,0,0,1,.98.8V2.813h1.539V15h-1.18l-.234-1.07a2.743,2.743,0,0,1-1.023.922,3.058,3.058,0,0,1-1.414.313,2.9,2.9,0,0,1-2.422-1.121,4.659,4.659,0,0,1-.875-2.949Zm1.539.164a3.588,3.588,0,0,0,.523,2.051,1.828,1.828,0,0,0,1.625.77,2.039,2.039,0,0,0,1.156-.312,2.334,2.334,0,0,0,.766-.875V8.781a2.37,2.37,0,0,0-.77-.832A2.033,2.033,0,0,0,65.8,7.641a1.759,1.759,0,0,0-1.637.914,4.718,4.718,0,0,0-.527,2.375ZM73.2,15H71.664V6.547H73.2Zm0-10.617H71.664V2.813H73.2Zm5.188,8.125.133.594h.047l.148-.594,1.945-5.961h1.57L79.125,15H77.961L74.813,6.547h1.578Zm8.625,2.656A3.576,3.576,0,0,1,84.176,14a4.48,4.48,0,0,1-1.02-3.062v-.344a4.386,4.386,0,0,1,1.051-3.012,3.3,3.3,0,0,1,2.566-1.191,3.067,3.067,0,0,1,2.543,1.055,4.345,4.345,0,0,1,.848,2.8v.813H84.758l-.023.039a3.494,3.494,0,0,0,.563,2.066,1.965,1.965,0,0,0,1.719.793,3.872,3.872,0,0,0,1.371-.223,3.061,3.061,0,0,0,1.012-.613l.6,1a3.7,3.7,0,0,1-1.2.738A4.762,4.762,0,0,1,87.016,15.164ZM86.773,7.6a1.673,1.673,0,0,0-1.332.621,2.938,2.938,0,0,0-.645,1.59l.016.039h3.813V9.727A2.462,2.462,0,0,0,88.172,8.2,1.638,1.638,0,0,0,86.773,7.6Zm9.117.3L95.1,7.859a1.762,1.762,0,0,0-1.027.289,1.854,1.854,0,0,0-.645.813V15H91.891V6.547h1.375l.148,1.234A2.934,2.934,0,0,1,94.3,6.758a2.073,2.073,0,0,1,1.215-.367,1.9,1.9,0,0,1,.328.027,2.175,2.175,0,0,1,.258.059Zm6.516,4.82a1.026,1.026,0,0,0-.387-.828,3.732,3.732,0,0,0-1.465-.562,6.146,6.146,0,0,1-2.293-.9,1.814,1.814,0,0,1-.8-1.547,2.229,2.229,0,0,1,.879-1.766,3.879,3.879,0,0,1,4.605.047,2.239,2.239,0,0,1,.852,1.82l-.016.047h-1.469a1.331,1.331,0,0,0-.48-.992,1.717,1.717,0,0,0-1.215-.445,1.751,1.751,0,0,0-1.215.367,1.146,1.146,0,0,0-.4.875.927.927,0,0,0,.348.773,3.848,3.848,0,0,0,1.434.5,6.058,6.058,0,0,1,2.359.93,1.872,1.872,0,0,1,.8,1.57,2.226,2.226,0,0,1-.91,1.836,3.754,3.754,0,0,1-2.379.711,3.715,3.715,0,0,1-2.547-.82,2.341,2.341,0,0,1-.883-1.914l.016-.047h1.469a1.424,1.424,0,0,0,.609,1.2,2.358,2.358,0,0,0,1.336.379,2.1,2.1,0,0,0,1.285-.348A1.063,1.063,0,0,0,102.406,12.727ZM111.055,15q-.078-.383-.121-.676a4.96,4.96,0,0,1-.051-.59,3.589,3.589,0,0,1-1.121,1.02,2.867,2.867,0,0,1-1.488.41,2.763,2.763,0,0,1-2.012-.676,2.486,2.486,0,0,1-.691-1.863,2.183,2.183,0,0,1,.98-1.895,4.579,4.579,0,0,1,2.66-.684h1.672V9.211a1.551,1.551,0,0,0-.453-1.176,1.779,1.779,0,0,0-1.281-.434,1.859,1.859,0,0,0-1.211.375,1.125,1.125,0,0,0-.461.9l-1.461.016L106,8.844a2.023,2.023,0,0,1,.863-1.687,3.578,3.578,0,0,1,2.371-.766,3.49,3.49,0,0,1,2.313.73,2.588,2.588,0,0,1,.875,2.105V13.3a7.923,7.923,0,0,0,.047.875,4.5,4.5,0,0,0,.172.828ZM108.5,13.875a2.739,2.739,0,0,0,1.508-.43,2.042,2.042,0,0,0,.875-.984V11.086h-1.727a2.24,2.24,0,0,0-1.488.469,1.4,1.4,0,0,0-.559,1.1,1.159,1.159,0,0,0,.352.891A1.472,1.472,0,0,0,108.5,13.875Zm11.07-1.148a1.026,1.026,0,0,0-.387-.828,3.732,3.732,0,0,0-1.465-.562,6.146,6.146,0,0,1-2.293-.9,1.814,1.814,0,0,1-.8-1.547,2.229,2.229,0,0,1,.879-1.766,3.879,3.879,0,0,1,4.605.047,2.239,2.239,0,0,1,.852,1.82l-.016.047h-1.469a1.331,1.331,0,0,0-.48-.992,1.717,1.717,0,0,0-1.215-.445,1.751,1.751,0,0,0-1.215.367,1.146,1.146,0,0,0-.4.875.927.927,0,0,0,.348.773,3.848,3.848,0,0,0,1.434.5,6.058,6.058,0,0,1,2.359.93,1.872,1.872,0,0,1,.8,1.57,2.226,2.226,0,0,1-.91,1.836,3.754,3.754,0,0,1-2.379.711,3.715,3.715,0,0,1-2.547-.82,2.341,2.341,0,0,1-.883-1.914l.016-.047h1.469a1.424,1.424,0,0,0,.609,1.2,2.358,2.358,0,0,0,1.336.379,2.1,2.1,0,0,0,1.285-.348A1.063,1.063,0,0,0,119.57,12.727ZM9.445,35.359l.016.047a3.417,3.417,0,0,1-1.125,2.68,4.3,4.3,0,0,1-3.055,1.078A4.012,4.012,0,0,1,2.137,37.8,5.028,5.028,0,0,1,.922,34.328V32.3a5.043,5.043,0,0,1,1.215-3.473,4.006,4.006,0,0,1,3.145-1.371,4.416,4.416,0,0,1,3.07,1.027,3.4,3.4,0,0,1,1.109,2.723l-.016.047H7.969a2.539,2.539,0,0,0-.7-1.891,2.7,2.7,0,0,0-1.984-.7,2.424,2.424,0,0,0-2.055,1.039,4.227,4.227,0,0,0-.766,2.578v2.039a4.254,4.254,0,0,0,.766,2.594,2.424,2.424,0,0,0,2.055,1.039,2.71,2.71,0,0,0,1.984-.691,2.557,2.557,0,0,0,.7-1.91Zm7,3.641q-.078-.383-.121-.676a4.96,4.96,0,0,1-.051-.59,3.589,3.589,0,0,1-1.121,1.02,2.867,2.867,0,0,1-1.488.41,2.763,2.763,0,0,1-2.012-.676,2.486,2.486,0,0,1-.691-1.863,2.183,2.183,0,0,1,.98-1.895,4.579,4.579,0,0,1,2.66-.684h1.672v-.836a1.551,1.551,0,0,0-.453-1.176,1.779,1.779,0,0,0-1.281-.434,1.859,1.859,0,0,0-1.211.375,1.125,1.125,0,0,0-.461.9l-1.461.016-.016-.047a2.023,2.023,0,0,1,.863-1.687,3.578,3.578,0,0,1,2.371-.766,3.49,3.49,0,0,1,2.313.73,2.588,2.588,0,0,1,.875,2.105V37.3a7.923,7.923,0,0,0,.047.875,4.5,4.5,0,0,0,.172.828Zm-2.555-1.125a2.739,2.739,0,0,0,1.508-.43,2.042,2.042,0,0,0,.875-.984V35.086H14.547a2.24,2.24,0,0,0-1.488.469,1.4,1.4,0,0,0-.559,1.1,1.159,1.159,0,0,0,.352.891A1.472,1.472,0,0,0,13.891,37.875ZM21.711,39H20.172V26.813h1.539Zm4.031,0H24.2V30.547h1.539Zm0-10.617H24.2v-1.57h1.539Zm2.016,6.547a5.641,5.641,0,0,1,.871-3.289,2.807,2.807,0,0,1,2.441-1.25,3.027,3.027,0,0,1,1.316.273,2.7,2.7,0,0,1,.98.8V26.813h1.539V39h-1.18l-.234-1.07a2.743,2.743,0,0,1-1.023.922,3.058,3.058,0,0,1-1.414.313,2.9,2.9,0,0,1-2.422-1.121,4.659,4.659,0,0,1-.875-2.949Zm1.539.164a3.588,3.588,0,0,0,.523,2.051,1.828,1.828,0,0,0,1.625.77A2.039,2.039,0,0,0,32.6,37.6a2.334,2.334,0,0,0,.766-.875V32.781a2.37,2.37,0,0,0-.77-.832,2.033,2.033,0,0,0-1.137-.309,1.759,1.759,0,0,0-1.637.914A4.718,4.718,0,0,0,29.3,34.93ZM42.4,39q-.078-.383-.121-.676a4.96,4.96,0,0,1-.051-.59,3.589,3.589,0,0,1-1.121,1.02,2.867,2.867,0,0,1-1.488.41,2.763,2.763,0,0,1-2.012-.676,2.486,2.486,0,0,1-.691-1.863,2.183,2.183,0,0,1,.98-1.895,4.579,4.579,0,0,1,2.66-.684h1.672v-.836a1.551,1.551,0,0,0-.453-1.176,1.779,1.779,0,0,0-1.281-.434,1.859,1.859,0,0,0-1.211.375,1.125,1.125,0,0,0-.461.9l-1.461.016-.016-.047a2.023,2.023,0,0,1,.863-1.687,3.578,3.578,0,0,1,2.371-.766,3.49,3.49,0,0,1,2.313.73,2.588,2.588,0,0,1,.875,2.105V37.3a7.923,7.923,0,0,0,.047.875,4.5,4.5,0,0,0,.172.828Zm-2.555-1.125a2.739,2.739,0,0,0,1.508-.43,2.042,2.042,0,0,0,.875-.984V35.086H40.5a2.24,2.24,0,0,0-1.488.469,1.4,1.4,0,0,0-.559,1.1,1.159,1.159,0,0,0,.352.891A1.472,1.472,0,0,0,39.844,37.875Zm5.8-2.945a5.641,5.641,0,0,1,.871-3.289,2.807,2.807,0,0,1,2.441-1.25,3.027,3.027,0,0,1,1.316.273,2.7,2.7,0,0,1,.98.8V26.813H52.8V39h-1.18l-.234-1.07a2.743,2.743,0,0,1-1.023.922,3.058,3.058,0,0,1-1.414.313,2.9,2.9,0,0,1-2.422-1.121,4.659,4.659,0,0,1-.875-2.949Zm1.539.164a3.588,3.588,0,0,0,.523,2.051,1.828,1.828,0,0,0,1.625.77,2.039,2.039,0,0,0,1.156-.312,2.334,2.334,0,0,0,.766-.875V32.781a2.37,2.37,0,0,0-.77-.832,2.033,2.033,0,0,0-1.137-.309,1.759,1.759,0,0,0-1.637.914,4.718,4.718,0,0,0-.527,2.375ZM4.781,60.016l.258.945h.047l.258-.945,2.938-8.391H9.945L5.719,63H4.4L.172,51.625H1.844Zm5.734-1.32a4.654,4.654,0,0,1,1.016-3.09,3.406,3.406,0,0,1,2.758-1.215A3.439,3.439,0,0,1,17.066,55.6a4.639,4.639,0,0,1,1.02,3.094v.172a4.631,4.631,0,0,1-1.016,3.094,3.429,3.429,0,0,1-2.766,1.2,3.436,3.436,0,0,1-2.77-1.207,4.623,4.623,0,0,1-1.02-3.09Zm1.539.172a4.009,4.009,0,0,0,.566,2.219,1.875,1.875,0,0,0,1.684.875,1.87,1.87,0,0,0,1.672-.875,3.988,3.988,0,0,0,.57-2.219V58.7a3.976,3.976,0,0,0-.574-2.211,1.882,1.882,0,0,0-1.684-.883,1.856,1.856,0,0,0-1.668.883,4.018,4.018,0,0,0-.566,2.211ZM21.633,63H20.094V50.813h1.539Zm7.734-1.25A2.863,2.863,0,0,1,28.344,62.8a2.8,2.8,0,0,1-1.445.367,2.716,2.716,0,0,1-2.156-.883,4.1,4.1,0,0,1-.773-2.75V54.547h1.539v5a3.147,3.147,0,0,0,.4,1.859,1.481,1.481,0,0,0,1.242.508,2.531,2.531,0,0,0,1.355-.332,2.077,2.077,0,0,0,.809-.941V54.547h1.539V63H29.469Zm5.1-7.2.109,1.109a2.871,2.871,0,0,1,1.051-.934,3.157,3.157,0,0,1,1.48-.332,2.615,2.615,0,0,1,1.449.391,2.363,2.363,0,0,1,.91,1.172,3.162,3.162,0,0,1,1.059-1.145,2.769,2.769,0,0,1,1.527-.418,2.531,2.531,0,0,1,2.039.887,4.051,4.051,0,0,1,.75,2.668V63H43.3V57.93a2.81,2.81,0,0,0-.43-1.77,1.567,1.567,0,0,0-1.281-.52,1.631,1.631,0,0,0-1.277.547,2.381,2.381,0,0,0-.574,1.383V63H38.2V57.93a2.772,2.772,0,0,0-.441-1.738,1.532,1.532,0,0,0-1.27-.551,2.115,2.115,0,0,0-1.156.289,1.867,1.867,0,0,0-.7.813V63H33.094V54.547Zm16.109,8.617A3.576,3.576,0,0,1,47.738,62a4.48,4.48,0,0,1-1.02-3.062v-.344a4.386,4.386,0,0,1,1.051-3.012,3.3,3.3,0,0,1,2.566-1.191,3.067,3.067,0,0,1,2.543,1.055,4.345,4.345,0,0,1,.848,2.8v.813H48.32L48.3,59.1a3.494,3.494,0,0,0,.563,2.066,1.965,1.965,0,0,0,1.719.793,3.872,3.872,0,0,0,1.371-.223,3.061,3.061,0,0,0,1.012-.613l.6,1a3.7,3.7,0,0,1-1.2.738A4.762,4.762,0,0,1,50.578,63.164ZM50.336,55.6A1.673,1.673,0,0,0,49,56.223a2.938,2.938,0,0,0-.645,1.59l.016.039h3.813v-.125a2.462,2.462,0,0,0-.453-1.523A1.638,1.638,0,0,0,50.336,55.6Zm6.492-1.055.109,1.258A3.069,3.069,0,0,1,58,54.762a2.824,2.824,0,0,1,1.449-.371,2.759,2.759,0,0,1,2.117.8,3.515,3.515,0,0,1,.75,2.473V63H60.773V57.7a2.287,2.287,0,0,0-.441-1.586,1.768,1.768,0,0,0-1.348-.469,2.386,2.386,0,0,0-1.207.285,2.072,2.072,0,0,0-.785.8V63H55.453V54.547Z" transform="translate(685 1930.107)" fill="#12263f"/>
    <path id="Trazado_889960" data-name="Trazado 889960" d="M2.867,13.8H8.414V15H1.328V3.625H2.867ZM11.578,15H10.039V6.547h1.539Zm0-10.617H10.039V2.813h1.539ZM15.32,6.547l.109,1.109a2.871,2.871,0,0,1,1.051-.934,3.158,3.158,0,0,1,1.48-.332,2.615,2.615,0,0,1,1.449.391,2.363,2.363,0,0,1,.91,1.172,3.162,3.162,0,0,1,1.059-1.145,2.769,2.769,0,0,1,1.527-.418,2.531,2.531,0,0,1,2.039.887,4.051,4.051,0,0,1,.75,2.668V15H24.156V9.93a2.81,2.81,0,0,0-.43-1.77,1.567,1.567,0,0,0-1.281-.52,1.631,1.631,0,0,0-1.277.547,2.381,2.381,0,0,0-.574,1.383V15H19.047V9.93a2.772,2.772,0,0,0-.441-1.738,1.532,1.532,0,0,0-1.27-.551,2.115,2.115,0,0,0-1.156.289,1.867,1.867,0,0,0-.7.813V15H13.945V6.547Zm19.813,4.547a4.659,4.659,0,0,1-.875,2.949,2.893,2.893,0,0,1-2.414,1.121,3.354,3.354,0,0,1-1.371-.262,2.622,2.622,0,0,1-1-.785V18.25H27.93V6.547h1.18l.242,1.094a2.792,2.792,0,0,1,1.031-.93,3.078,3.078,0,0,1,1.438-.32,2.809,2.809,0,0,1,2.441,1.246,5.637,5.637,0,0,1,.871,3.293Zm-1.539-.164a4.467,4.467,0,0,0-.566-2.363,1.835,1.835,0,0,0-1.668-.926,2.054,2.054,0,0,0-1.133.3,2.25,2.25,0,0,0-.758.824v4.086a2.186,2.186,0,0,0,.758.816,2.126,2.126,0,0,0,1.148.293,1.894,1.894,0,0,0,1.656-.8,3.516,3.516,0,0,0,.563-2.066ZM38.688,15H37.148V6.547h1.539Zm0-10.617H37.148V2.813h1.539Zm5.867,10.781A3.576,3.576,0,0,1,41.715,14a4.48,4.48,0,0,1-1.02-3.062v-.344a4.386,4.386,0,0,1,1.051-3.012,3.3,3.3,0,0,1,2.566-1.191,3.067,3.067,0,0,1,2.543,1.055,4.345,4.345,0,0,1,.848,2.8v.813H42.3l-.023.039a3.494,3.494,0,0,0,.563,2.066,1.965,1.965,0,0,0,1.719.793,3.872,3.872,0,0,0,1.371-.223,3.061,3.061,0,0,0,1.012-.613l.6,1a3.7,3.7,0,0,1-1.2.738A4.762,4.762,0,0,1,44.555,15.164ZM44.313,7.6a1.673,1.673,0,0,0-1.332.621,2.938,2.938,0,0,0-.645,1.59l.016.039h3.813V9.727A2.462,2.462,0,0,0,45.711,8.2,1.638,1.638,0,0,0,44.313,7.6Zm6.57,6.2h4.883V15H49.047V13.922l4.57-6.156H49.1V6.547h6.4V7.594ZM62.672,15q-.078-.383-.121-.676a4.96,4.96,0,0,1-.051-.59,3.589,3.589,0,0,1-1.121,1.02,2.867,2.867,0,0,1-1.488.41,2.763,2.763,0,0,1-2.012-.676,2.486,2.486,0,0,1-.691-1.863,2.183,2.183,0,0,1,.98-1.895,4.579,4.579,0,0,1,2.66-.684H62.5V9.211a1.551,1.551,0,0,0-.453-1.176A1.779,1.779,0,0,0,60.766,7.6a1.859,1.859,0,0,0-1.211.375,1.125,1.125,0,0,0-.461.9l-1.461.016-.016-.047a2.023,2.023,0,0,1,.863-1.687,3.578,3.578,0,0,1,2.371-.766,3.49,3.49,0,0,1,2.313.73,2.588,2.588,0,0,1,.875,2.105V13.3a7.923,7.923,0,0,0,.047.875,4.5,4.5,0,0,0,.172.828Zm-2.555-1.125a2.739,2.739,0,0,0,1.508-.43,2.042,2.042,0,0,0,.875-.984V11.086H60.773a2.24,2.24,0,0,0-1.488.469,1.4,1.4,0,0,0-.559,1.1,1.159,1.159,0,0,0,.352.891A1.472,1.472,0,0,0,60.117,13.875ZM9.281,28.836H5.531V39H3.992V28.836H.289V27.625H9.281Zm4.82,3.07-.789-.047a1.762,1.762,0,0,0-1.027.289,1.854,1.854,0,0,0-.645.813V39H10.1V30.547h1.375l.148,1.234a2.934,2.934,0,0,1,.887-1.023,2.073,2.073,0,0,1,1.215-.367,1.9,1.9,0,0,1,.328.027,2.174,2.174,0,0,1,.258.059ZM20.9,39q-.078-.383-.121-.676a4.96,4.96,0,0,1-.051-.59,3.589,3.589,0,0,1-1.121,1.02,2.867,2.867,0,0,1-1.488.41,2.763,2.763,0,0,1-2.012-.676,2.486,2.486,0,0,1-.691-1.863,2.183,2.183,0,0,1,.98-1.895,4.579,4.579,0,0,1,2.66-.684h1.672v-.836a1.551,1.551,0,0,0-.453-1.176,1.779,1.779,0,0,0-1.281-.434,1.859,1.859,0,0,0-1.211.375,1.125,1.125,0,0,0-.461.9l-1.461.016-.016-.047a2.023,2.023,0,0,1,.863-1.687,3.578,3.578,0,0,1,2.371-.766,3.49,3.49,0,0,1,2.313.73,2.588,2.588,0,0,1,.875,2.105V37.3a7.923,7.923,0,0,0,.047.875,4.5,4.5,0,0,0,.172.828Zm-2.555-1.125a2.739,2.739,0,0,0,1.508-.43,2.042,2.042,0,0,0,.875-.984V35.086H19a2.24,2.24,0,0,0-1.488.469,1.4,1.4,0,0,0-.559,1.1,1.159,1.159,0,0,0,.352.891A1.472,1.472,0,0,0,18.344,37.875Zm7.531-7.328.109,1.258a3.069,3.069,0,0,1,1.059-1.043,2.824,2.824,0,0,1,1.449-.371,2.759,2.759,0,0,1,2.117.8,3.515,3.515,0,0,1,.75,2.473V39H29.82V33.7a2.287,2.287,0,0,0-.441-1.586,1.768,1.768,0,0,0-1.348-.469,2.386,2.386,0,0,0-1.207.285,2.072,2.072,0,0,0-.785.8V39H24.5V30.547Zm12.633,6.18a1.026,1.026,0,0,0-.387-.828,3.732,3.732,0,0,0-1.465-.562,6.146,6.146,0,0,1-2.293-.9,1.814,1.814,0,0,1-.8-1.547,2.229,2.229,0,0,1,.879-1.766,3.879,3.879,0,0,1,4.605.047,2.239,2.239,0,0,1,.852,1.82l-.016.047H38.414a1.331,1.331,0,0,0-.48-.992,1.717,1.717,0,0,0-1.215-.445,1.751,1.751,0,0,0-1.215.367,1.146,1.146,0,0,0-.4.875.927.927,0,0,0,.348.773,3.848,3.848,0,0,0,1.434.5,6.058,6.058,0,0,1,2.359.93,1.872,1.872,0,0,1,.8,1.57,2.226,2.226,0,0,1-.91,1.836,3.754,3.754,0,0,1-2.379.711,3.715,3.715,0,0,1-2.547-.82,2.341,2.341,0,0,1-.883-1.914l.016-.047h1.469a1.424,1.424,0,0,0,.609,1.2,2.358,2.358,0,0,0,1.336.379,2.1,2.1,0,0,0,1.285-.348A1.063,1.063,0,0,0,38.508,36.727ZM42.6,39V31.688h-1.32V30.547H42.6v-1.07a2.9,2.9,0,0,1,.707-2.09,2.6,2.6,0,0,1,1.973-.738,3.4,3.4,0,0,1,.535.043q.27.043.6.121l-.187,1.172q-.141-.031-.34-.055a3.579,3.579,0,0,0-.418-.023,1.215,1.215,0,0,0-1,.4,1.809,1.809,0,0,0-.328,1.168v1.07h1.531v1.141H44.141V39Zm4.266-4.3a4.654,4.654,0,0,1,1.016-3.09,3.764,3.764,0,0,1,5.535,0,4.639,4.639,0,0,1,1.02,3.094v.172a4.631,4.631,0,0,1-1.016,3.094,3.781,3.781,0,0,1-5.535,0,4.623,4.623,0,0,1-1.02-3.09Zm1.539.172a4.009,4.009,0,0,0,.566,2.219,2.046,2.046,0,0,0,3.355,0,3.988,3.988,0,0,0,.57-2.219V34.7a3.976,3.976,0,0,0-.574-2.211,1.882,1.882,0,0,0-1.684-.883,1.856,1.856,0,0,0-1.668.883,4.018,4.018,0,0,0-.566,2.211ZM60.32,31.906l-.789-.047a1.762,1.762,0,0,0-1.027.289,1.855,1.855,0,0,0-.645.813V39H56.32V30.547H57.7l.148,1.234a2.934,2.934,0,0,1,.887-1.023,2.073,2.073,0,0,1,1.215-.367,1.9,1.9,0,0,1,.328.027,2.174,2.174,0,0,1,.258.059ZM63.3,30.547l.109,1.109a2.871,2.871,0,0,1,1.051-.934,3.158,3.158,0,0,1,1.48-.332,2.615,2.615,0,0,1,1.449.391,2.363,2.363,0,0,1,.91,1.172,3.162,3.162,0,0,1,1.059-1.145,2.769,2.769,0,0,1,1.527-.418,2.531,2.531,0,0,1,2.039.887,4.051,4.051,0,0,1,.75,2.668V39H72.133V33.93a2.81,2.81,0,0,0-.43-1.77,1.567,1.567,0,0,0-1.281-.52,1.631,1.631,0,0,0-1.277.547,2.381,2.381,0,0,0-.574,1.383V39H67.023V33.93a2.772,2.772,0,0,0-.441-1.738,1.532,1.532,0,0,0-1.27-.551,2.115,2.115,0,0,0-1.156.289,1.867,1.867,0,0,0-.7.813V39H61.922V30.547ZM81.1,39q-.078-.383-.121-.676a4.96,4.96,0,0,1-.051-.59,3.589,3.589,0,0,1-1.121,1.02,2.867,2.867,0,0,1-1.488.41,2.763,2.763,0,0,1-2.012-.676,2.486,2.486,0,0,1-.691-1.863,2.183,2.183,0,0,1,.98-1.895,4.579,4.579,0,0,1,2.66-.684H80.93v-.836a1.551,1.551,0,0,0-.453-1.176A1.779,1.779,0,0,0,79.2,31.6a1.859,1.859,0,0,0-1.211.375,1.125,1.125,0,0,0-.461.9l-1.461.016-.016-.047a2.023,2.023,0,0,1,.863-1.687,3.578,3.578,0,0,1,2.371-.766,3.49,3.49,0,0,1,2.313.73,2.588,2.588,0,0,1,.875,2.105V37.3a7.923,7.923,0,0,0,.047.875,4.5,4.5,0,0,0,.172.828Zm-2.555-1.125a2.739,2.739,0,0,0,1.508-.43,2.042,2.042,0,0,0,.875-.984V35.086H79.2a2.24,2.24,0,0,0-1.488.469,1.4,1.4,0,0,0-.559,1.1,1.159,1.159,0,0,0,.352.891A1.472,1.472,0,0,0,78.547,37.875Zm9.516.086a1.81,1.81,0,0,0,1.242-.473,1.494,1.494,0,0,0,.531-1.16h1.391l.023.047a2.428,2.428,0,0,1-.937,1.941,3.582,3.582,0,0,1-5-.363,4.674,4.674,0,0,1-.969-3.016v-.328a4.654,4.654,0,0,1,.973-3,3.317,3.317,0,0,1,2.746-1.215,3.189,3.189,0,0,1,2.316.875,2.775,2.775,0,0,1,.871,2.148l-.016.047h-1.4a1.865,1.865,0,0,0-.5-1.316,1.658,1.658,0,0,0-1.27-.543,1.777,1.777,0,0,0-1.652.879,4.114,4.114,0,0,0-.52,2.129v.328a4.192,4.192,0,0,0,.512,2.148A1.776,1.776,0,0,0,88.063,37.961ZM94.742,39H93.2V30.547h1.539Zm0-10.617H93.2v-1.57h1.539ZM96.75,34.7a4.654,4.654,0,0,1,1.016-3.09,3.764,3.764,0,0,1,5.535,0,4.639,4.639,0,0,1,1.02,3.094v.172a4.631,4.631,0,0,1-1.016,3.094,3.781,3.781,0,0,1-5.535,0,4.623,4.623,0,0,1-1.02-3.09Zm1.539.172a4.009,4.009,0,0,0,.566,2.219,2.046,2.046,0,0,0,3.355,0,3.988,3.988,0,0,0,.57-2.219V34.7a3.976,3.976,0,0,0-.574-2.211,1.882,1.882,0,0,0-1.684-.883,1.856,1.856,0,0,0-1.668.883,4.018,4.018,0,0,0-.566,2.211Zm2.992-7.906h1.8l.016.047-2.1,2.031H99.836Zm6.3,3.586.109,1.258a3.069,3.069,0,0,1,1.059-1.043,2.824,2.824,0,0,1,1.449-.371,2.759,2.759,0,0,1,2.117.8,3.515,3.515,0,0,1,.75,2.473V39h-1.539V33.7a2.287,2.287,0,0,0-.441-1.586,1.768,1.768,0,0,0-1.348-.469,2.386,2.386,0,0,0-1.207.285,2.072,2.072,0,0,0-.785.8V39H106.2V30.547ZM4.781,60.016l.258.945h.047l.258-.945,2.938-8.391H9.945L5.719,63H4.4L.172,51.625H1.844ZM16.07,63q-.078-.383-.121-.676a4.96,4.96,0,0,1-.051-.59,3.589,3.589,0,0,1-1.121,1.02,2.867,2.867,0,0,1-1.488.41,2.763,2.763,0,0,1-2.012-.676,2.486,2.486,0,0,1-.691-1.863,2.183,2.183,0,0,1,.98-1.895,4.579,4.579,0,0,1,2.66-.684H15.9v-.836a1.551,1.551,0,0,0-.453-1.176,1.779,1.779,0,0,0-1.281-.434,1.859,1.859,0,0,0-1.211.375,1.125,1.125,0,0,0-.461.9l-1.461.016-.016-.047a2.023,2.023,0,0,1,.863-1.687,3.578,3.578,0,0,1,2.371-.766,3.49,3.49,0,0,1,2.313.73,2.588,2.588,0,0,1,.875,2.105V61.3a7.923,7.923,0,0,0,.047.875,4.5,4.5,0,0,0,.172.828Zm-2.555-1.125a2.739,2.739,0,0,0,1.508-.43,2.042,2.042,0,0,0,.875-.984V59.086H14.172a2.24,2.24,0,0,0-1.488.469,1.4,1.4,0,0,0-.559,1.1,1.159,1.159,0,0,0,.352.891A1.472,1.472,0,0,0,13.516,61.875ZM21.336,63H19.8V50.813h1.539Zm4.031,0H23.828V54.547h1.539Zm0-10.617H23.828v-1.57h1.539Zm2.016,6.547a5.641,5.641,0,0,1,.871-3.289,2.807,2.807,0,0,1,2.441-1.25,3.027,3.027,0,0,1,1.316.273,2.7,2.7,0,0,1,.98.8V50.813h1.539V63h-1.18l-.234-1.07a2.743,2.743,0,0,1-1.023.922,3.058,3.058,0,0,1-1.414.313,2.9,2.9,0,0,1-2.422-1.121,4.659,4.659,0,0,1-.875-2.949Zm1.539.164a3.588,3.588,0,0,0,.523,2.051,1.828,1.828,0,0,0,1.625.77,2.039,2.039,0,0,0,1.156-.312,2.334,2.334,0,0,0,.766-.875V56.781a2.37,2.37,0,0,0-.77-.832,2.033,2.033,0,0,0-1.137-.309,1.759,1.759,0,0,0-1.637.914,4.718,4.718,0,0,0-.527,2.375ZM42.023,63q-.078-.383-.121-.676a4.96,4.96,0,0,1-.051-.59,3.589,3.589,0,0,1-1.121,1.02,2.867,2.867,0,0,1-1.488.41,2.763,2.763,0,0,1-2.012-.676,2.486,2.486,0,0,1-.691-1.863,2.183,2.183,0,0,1,.98-1.895,4.579,4.579,0,0,1,2.66-.684h1.672v-.836a1.551,1.551,0,0,0-.453-1.176,1.779,1.779,0,0,0-1.281-.434,1.859,1.859,0,0,0-1.211.375,1.125,1.125,0,0,0-.461.9l-1.461.016-.016-.047a2.023,2.023,0,0,1,.863-1.687,3.578,3.578,0,0,1,2.371-.766,3.49,3.49,0,0,1,2.313.73,2.588,2.588,0,0,1,.875,2.105V61.3a7.923,7.923,0,0,0,.047.875,4.5,4.5,0,0,0,.172.828Zm-2.555-1.125a2.739,2.739,0,0,0,1.508-.43,2.042,2.042,0,0,0,.875-.984V59.086H40.125a2.24,2.24,0,0,0-1.488.469,1.4,1.4,0,0,0-.559,1.1,1.159,1.159,0,0,0,.352.891A1.472,1.472,0,0,0,39.469,61.875Zm9.516.086a1.81,1.81,0,0,0,1.242-.473,1.494,1.494,0,0,0,.531-1.16h1.391l.023.047a2.428,2.428,0,0,1-.937,1.941,3.582,3.582,0,0,1-5-.363,4.674,4.674,0,0,1-.969-3.016v-.328a4.654,4.654,0,0,1,.973-3,3.317,3.317,0,0,1,2.746-1.215,3.189,3.189,0,0,1,2.316.875,2.775,2.775,0,0,1,.871,2.148l-.016.047h-1.4a1.865,1.865,0,0,0-.5-1.316,1.658,1.658,0,0,0-1.27-.543,1.777,1.777,0,0,0-1.652.879,4.114,4.114,0,0,0-.52,2.129v.328a4.192,4.192,0,0,0,.512,2.148A1.776,1.776,0,0,0,48.984,61.961ZM55.664,63H54.125V54.547h1.539Zm0-10.617H54.125v-1.57h1.539ZM57.672,58.7a4.654,4.654,0,0,1,1.016-3.09,3.764,3.764,0,0,1,5.535,0,4.639,4.639,0,0,1,1.02,3.094v.172a4.631,4.631,0,0,1-1.016,3.094,3.781,3.781,0,0,1-5.535,0,4.623,4.623,0,0,1-1.02-3.09Zm1.539.172a4.009,4.009,0,0,0,.566,2.219,2.046,2.046,0,0,0,3.355,0,3.988,3.988,0,0,0,.57-2.219V58.7a3.976,3.976,0,0,0-.574-2.211,1.882,1.882,0,0,0-1.684-.883,1.856,1.856,0,0,0-1.668.883,4.018,4.018,0,0,0-.566,2.211ZM62.2,50.961H64l.016.047-2.1,2.031H60.758Zm6.3,3.586.109,1.258a3.069,3.069,0,0,1,1.059-1.043,2.824,2.824,0,0,1,1.449-.371,2.759,2.759,0,0,1,2.117.8,3.515,3.515,0,0,1,.75,2.473V63H72.445V57.7A2.287,2.287,0,0,0,72,56.109a1.768,1.768,0,0,0-1.348-.469,2.386,2.386,0,0,0-1.207.285,2.072,2.072,0,0,0-.785.8V63H67.125V54.547Z" transform="translate(797 2054.107)" fill="#12263f"/>
    <path id="Trazado_889961" data-name="Trazado 889961" d="M7.2,12.07H2.922L1.906,15H.336l4.1-11.375h1.32L9.773,15H8.2ZM3.367,10.781h3.4L5.109,5.9H5.063ZM12.9,15H11.359V2.813H12.9Zm2.094-4.07a5.641,5.641,0,0,1,.871-3.289A2.8,2.8,0,0,1,18.3,6.391a2.966,2.966,0,0,1,1.414.324,2.845,2.845,0,0,1,1.023.934l.188-1.1h1.227v8.5a3.225,3.225,0,0,1-.945,2.5,3.884,3.884,0,0,1-2.727.871,5.717,5.717,0,0,1-1.316-.168,5.147,5.147,0,0,1-1.246-.457l.234-1.2a4.45,4.45,0,0,0,1.074.379,5.517,5.517,0,0,0,1.238.145,2.242,2.242,0,0,0,1.637-.512,2.12,2.12,0,0,0,.512-1.559v-.961a2.725,2.725,0,0,1-.992.8,3.091,3.091,0,0,1-1.336.273,2.89,2.89,0,0,1-2.418-1.121,4.674,4.674,0,0,1-.871-2.949Zm1.539.164a3.592,3.592,0,0,0,.523,2.047,1.817,1.817,0,0,0,1.617.773,2.034,2.034,0,0,0,1.164-.316,2.4,2.4,0,0,0,.773-.895V8.813a2.388,2.388,0,0,0-.773-.855,2.029,2.029,0,0,0-1.148-.316,1.752,1.752,0,0,0-1.629.914,4.718,4.718,0,0,0-.527,2.375ZM24,10.7a4.654,4.654,0,0,1,1.016-3.09,3.406,3.406,0,0,1,2.758-1.215A3.439,3.439,0,0,1,30.551,7.6,4.639,4.639,0,0,1,31.57,10.7v.172a4.631,4.631,0,0,1-1.016,3.094,3.429,3.429,0,0,1-2.766,1.2,3.436,3.436,0,0,1-2.77-1.207A4.623,4.623,0,0,1,24,10.867Zm1.539.172a4.009,4.009,0,0,0,.566,2.219,2.046,2.046,0,0,0,3.355,0,3.988,3.988,0,0,0,.57-2.219V10.7a3.976,3.976,0,0,0-.574-2.211A1.882,1.882,0,0,0,27.773,7.6a1.856,1.856,0,0,0-1.668.883,4.018,4.018,0,0,0-.566,2.211ZM37.453,7.906l-.789-.047a1.762,1.762,0,0,0-1.027.289,1.855,1.855,0,0,0-.645.813V15H33.453V6.547h1.375l.148,1.234a2.934,2.934,0,0,1,.887-1.023,2.073,2.073,0,0,1,1.215-.367,1.9,1.9,0,0,1,.328.027,2.174,2.174,0,0,1,.258.059ZM40.719,15H39.18V6.547h1.539Zm0-10.617H39.18V2.813h1.539Zm4.508.125V6.547h1.6V7.688h-1.6V12.82a1.149,1.149,0,0,0,.246.836.89.89,0,0,0,.652.242,1.429,1.429,0,0,0,.3-.035,2.2,2.2,0,0,0,.273-.074l.211,1.055a1.36,1.36,0,0,1-.508.23,2.562,2.562,0,0,1-.664.09,1.993,1.993,0,0,1-1.492-.566,2.46,2.46,0,0,1-.555-1.777V7.688H42.344V6.547h1.344V4.508Zm4.625,2.039.109,1.109a2.871,2.871,0,0,1,1.051-.934,3.158,3.158,0,0,1,1.48-.332,2.615,2.615,0,0,1,1.449.391,2.363,2.363,0,0,1,.91,1.172A3.162,3.162,0,0,1,55.91,6.809a2.769,2.769,0,0,1,1.527-.418,2.531,2.531,0,0,1,2.039.887,4.051,4.051,0,0,1,.75,2.668V15H58.688V9.93a2.81,2.81,0,0,0-.43-1.77,1.567,1.567,0,0,0-1.281-.52,1.631,1.631,0,0,0-1.277.547,2.381,2.381,0,0,0-.574,1.383V15H53.578V9.93a2.772,2.772,0,0,0-.441-1.738,1.532,1.532,0,0,0-1.27-.551,2.115,2.115,0,0,0-1.156.289,1.867,1.867,0,0,0-.7.813V15H48.477V6.547ZM62.1,10.7a4.654,4.654,0,0,1,1.016-3.09,3.764,3.764,0,0,1,5.535,0,4.639,4.639,0,0,1,1.02,3.094v.172a4.631,4.631,0,0,1-1.016,3.094,3.781,3.781,0,0,1-5.535,0,4.623,4.623,0,0,1-1.02-3.09Zm1.539.172a4.009,4.009,0,0,0,.566,2.219,2.046,2.046,0,0,0,3.355,0,3.988,3.988,0,0,0,.57-2.219V10.7a3.976,3.976,0,0,0-.574-2.211A1.882,1.882,0,0,0,65.875,7.6a1.856,1.856,0,0,0-1.668.883,4.018,4.018,0,0,0-.566,2.211Zm12.828,1.859a1.026,1.026,0,0,0-.387-.828,3.732,3.732,0,0,0-1.465-.562,6.146,6.146,0,0,1-2.293-.9,1.814,1.814,0,0,1-.8-1.547A2.229,2.229,0,0,1,72.4,7.125a3.879,3.879,0,0,1,4.605.047,2.239,2.239,0,0,1,.852,1.82l-.016.047H76.375a1.331,1.331,0,0,0-.48-.992A1.717,1.717,0,0,0,74.68,7.6a1.751,1.751,0,0,0-1.215.367,1.146,1.146,0,0,0-.4.875.927.927,0,0,0,.348.773,3.848,3.848,0,0,0,1.434.5,6.058,6.058,0,0,1,2.359.93,1.872,1.872,0,0,1,.8,1.57,2.226,2.226,0,0,1-.91,1.836,3.754,3.754,0,0,1-2.379.711,3.715,3.715,0,0,1-2.547-.82,2.341,2.341,0,0,1-.883-1.914l.016-.047h1.469a1.424,1.424,0,0,0,.609,1.2,2.358,2.358,0,0,0,1.336.379A2.1,2.1,0,0,0,76,13.613,1.063,1.063,0,0,0,76.469,12.727ZM7.2,36.07H2.922L1.906,39H.336l4.1-11.375h1.32L9.773,39H8.2ZM3.367,34.781h3.4L5.109,29.9H5.063Zm9.641-4.234V39.7a2.807,2.807,0,0,1-.672,2.012,2.452,2.452,0,0,1-1.867.707,2.549,2.549,0,0,1-.441-.035,3.49,3.49,0,0,1-.426-.105l.109-1.211a1.621,1.621,0,0,0,.313.066,2.608,2.608,0,0,0,.336.027,1.02,1.02,0,0,0,.809-.344,1.681,1.681,0,0,0,.3-1.117V30.547Zm-.047-2.2H11.422V26.813h1.539Zm7.781,9.4A2.863,2.863,0,0,1,19.719,38.8a2.8,2.8,0,0,1-1.445.367,2.716,2.716,0,0,1-2.156-.883,4.1,4.1,0,0,1-.773-2.75V30.547h1.539v5a3.147,3.147,0,0,0,.4,1.859,1.481,1.481,0,0,0,1.242.508,2.531,2.531,0,0,0,1.355-.332,2.077,2.077,0,0,0,.809-.941V30.547h1.539V39H20.844Zm8.641-1.023A1.026,1.026,0,0,0,29,35.9a3.732,3.732,0,0,0-1.465-.562,6.146,6.146,0,0,1-2.293-.9,1.814,1.814,0,0,1-.8-1.547,2.229,2.229,0,0,1,.879-1.766,3.433,3.433,0,0,1,2.277-.734,3.4,3.4,0,0,1,2.328.781,2.239,2.239,0,0,1,.852,1.82l-.016.047H29.289a1.331,1.331,0,0,0-.48-.992,1.717,1.717,0,0,0-1.215-.445,1.751,1.751,0,0,0-1.215.367,1.146,1.146,0,0,0-.4.875.927.927,0,0,0,.348.773,3.848,3.848,0,0,0,1.434.5,6.058,6.058,0,0,1,2.359.93,1.872,1.872,0,0,1,.8,1.57,2.226,2.226,0,0,1-.91,1.836,3.754,3.754,0,0,1-2.379.711,3.715,3.715,0,0,1-2.547-.82A2.341,2.341,0,0,1,24.2,36.43l.016-.047h1.469a1.424,1.424,0,0,0,.609,1.2,2.358,2.358,0,0,0,1.336.379,2.1,2.1,0,0,0,1.285-.348A1.063,1.063,0,0,0,29.383,36.727Zm5.594-8.219v2.039h1.6v1.141h-1.6V36.82a1.149,1.149,0,0,0,.246.836.89.89,0,0,0,.652.242,1.429,1.429,0,0,0,.3-.035,2.2,2.2,0,0,0,.273-.074l.211,1.055a1.36,1.36,0,0,1-.508.23,2.562,2.562,0,0,1-.664.09,1.993,1.993,0,0,1-1.492-.566,2.46,2.46,0,0,1-.555-1.777V31.688H32.094V30.547h1.344V28.508Zm6.75,10.656A3.576,3.576,0,0,1,38.887,38a4.48,4.48,0,0,1-1.02-3.062v-.344a4.386,4.386,0,0,1,1.051-3.012,3.3,3.3,0,0,1,2.566-1.191,3.067,3.067,0,0,1,2.543,1.055,4.345,4.345,0,0,1,.848,2.8v.813H39.469l-.023.039a3.494,3.494,0,0,0,.563,2.066,1.965,1.965,0,0,0,1.719.793,3.872,3.872,0,0,0,1.371-.223,3.061,3.061,0,0,0,1.012-.613l.6,1a3.7,3.7,0,0,1-1.2.738A4.762,4.762,0,0,1,41.727,39.164ZM41.484,31.6a1.673,1.673,0,0,0-1.332.621,2.938,2.938,0,0,0-.645,1.59l.016.039h3.813v-.125a2.462,2.462,0,0,0-.453-1.523A1.638,1.638,0,0,0,41.484,31.6ZM4.781,60.016l.258.945h.047l.258-.945,2.938-8.391H9.945L5.719,63H4.4L.172,51.625H1.844ZM16.07,63q-.078-.383-.121-.676a4.96,4.96,0,0,1-.051-.59,3.589,3.589,0,0,1-1.121,1.02,2.867,2.867,0,0,1-1.488.41,2.763,2.763,0,0,1-2.012-.676,2.486,2.486,0,0,1-.691-1.863,2.183,2.183,0,0,1,.98-1.895,4.579,4.579,0,0,1,2.66-.684H15.9v-.836a1.551,1.551,0,0,0-.453-1.176,1.779,1.779,0,0,0-1.281-.434,1.859,1.859,0,0,0-1.211.375,1.125,1.125,0,0,0-.461.9l-1.461.016-.016-.047a2.023,2.023,0,0,1,.863-1.687,3.578,3.578,0,0,1,2.371-.766,3.49,3.49,0,0,1,2.313.73,2.588,2.588,0,0,1,.875,2.105V61.3a7.923,7.923,0,0,0,.047.875,4.5,4.5,0,0,0,.172.828Zm-2.555-1.125a2.739,2.739,0,0,0,1.508-.43,2.042,2.042,0,0,0,.875-.984V59.086H14.172a2.24,2.24,0,0,0-1.488.469,1.4,1.4,0,0,0-.559,1.1,1.159,1.159,0,0,0,.352.891A1.472,1.472,0,0,0,13.516,61.875ZM21.336,63H19.8V50.813h1.539Zm4.031,0H23.828V54.547h1.539Zm0-10.617H23.828v-1.57h1.539Zm2.016,6.547a5.641,5.641,0,0,1,.871-3.289,2.807,2.807,0,0,1,2.441-1.25,3.027,3.027,0,0,1,1.316.273,2.7,2.7,0,0,1,.98.8V50.813h1.539V63h-1.18l-.234-1.07a2.743,2.743,0,0,1-1.023.922,3.058,3.058,0,0,1-1.414.313,2.9,2.9,0,0,1-2.422-1.121,4.659,4.659,0,0,1-.875-2.949Zm1.539.164a3.588,3.588,0,0,0,.523,2.051,1.828,1.828,0,0,0,1.625.77,2.039,2.039,0,0,0,1.156-.312,2.334,2.334,0,0,0,.766-.875V56.781a2.37,2.37,0,0,0-.77-.832,2.033,2.033,0,0,0-1.137-.309,1.759,1.759,0,0,0-1.637.914,4.718,4.718,0,0,0-.527,2.375ZM42.023,63q-.078-.383-.121-.676a4.96,4.96,0,0,1-.051-.59,3.589,3.589,0,0,1-1.121,1.02,2.867,2.867,0,0,1-1.488.41,2.763,2.763,0,0,1-2.012-.676,2.486,2.486,0,0,1-.691-1.863,2.183,2.183,0,0,1,.98-1.895,4.579,4.579,0,0,1,2.66-.684h1.672v-.836a1.551,1.551,0,0,0-.453-1.176,1.779,1.779,0,0,0-1.281-.434,1.859,1.859,0,0,0-1.211.375,1.125,1.125,0,0,0-.461.9l-1.461.016-.016-.047a2.023,2.023,0,0,1,.863-1.687,3.578,3.578,0,0,1,2.371-.766,3.49,3.49,0,0,1,2.313.73,2.588,2.588,0,0,1,.875,2.105V61.3a7.923,7.923,0,0,0,.047.875,4.5,4.5,0,0,0,.172.828Zm-2.555-1.125a2.739,2.739,0,0,0,1.508-.43,2.042,2.042,0,0,0,.875-.984V59.086H40.125a2.24,2.24,0,0,0-1.488.469,1.4,1.4,0,0,0-.559,1.1,1.159,1.159,0,0,0,.352.891A1.472,1.472,0,0,0,39.469,61.875Zm9.516.086a1.81,1.81,0,0,0,1.242-.473,1.494,1.494,0,0,0,.531-1.16h1.391l.023.047a2.428,2.428,0,0,1-.937,1.941,3.582,3.582,0,0,1-5-.363,4.674,4.674,0,0,1-.969-3.016v-.328a4.654,4.654,0,0,1,.973-3,3.317,3.317,0,0,1,2.746-1.215,3.189,3.189,0,0,1,2.316.875,2.775,2.775,0,0,1,.871,2.148l-.016.047h-1.4a1.865,1.865,0,0,0-.5-1.316,1.658,1.658,0,0,0-1.27-.543,1.777,1.777,0,0,0-1.652.879,4.114,4.114,0,0,0-.52,2.129v.328a4.192,4.192,0,0,0,.512,2.148A1.776,1.776,0,0,0,48.984,61.961ZM55.664,63H54.125V54.547h1.539Zm0-10.617H54.125v-1.57h1.539ZM57.672,58.7a4.654,4.654,0,0,1,1.016-3.09,3.764,3.764,0,0,1,5.535,0,4.639,4.639,0,0,1,1.02,3.094v.172a4.631,4.631,0,0,1-1.016,3.094,3.781,3.781,0,0,1-5.535,0,4.623,4.623,0,0,1-1.02-3.09Zm1.539.172a4.009,4.009,0,0,0,.566,2.219,2.046,2.046,0,0,0,3.355,0,3.988,3.988,0,0,0,.57-2.219V58.7a3.976,3.976,0,0,0-.574-2.211,1.882,1.882,0,0,0-1.684-.883,1.856,1.856,0,0,0-1.668.883,4.018,4.018,0,0,0-.566,2.211ZM62.2,50.961H64l.016.047-2.1,2.031H60.758Zm6.3,3.586.109,1.258a3.069,3.069,0,0,1,1.059-1.043,2.824,2.824,0,0,1,1.449-.371,2.759,2.759,0,0,1,2.117.8,3.515,3.515,0,0,1,.75,2.473V63H72.445V57.7A2.287,2.287,0,0,0,72,56.109a1.768,1.768,0,0,0-1.348-.469,2.386,2.386,0,0,0-1.207.285,2.072,2.072,0,0,0-.785.8V63H67.125V54.547Z" transform="translate(907 2178.107)" fill="#12263f"/>
    <path id="Trazado_889962" data-name="Trazado 889962" d="M6.969,12.867h.047l3.633-9.242h1.914V15H11.023V6.477l-.047-.008L7.531,15H6.461L2.914,6.188,2.867,6.2V15H1.328V3.625H3.352Zm11.547,2.3A3.576,3.576,0,0,1,15.676,14a4.48,4.48,0,0,1-1.02-3.062v-.344a4.386,4.386,0,0,1,1.051-3.012,3.3,3.3,0,0,1,2.566-1.191,3.067,3.067,0,0,1,2.543,1.055,4.345,4.345,0,0,1,.848,2.8v.813H16.258l-.023.039a3.494,3.494,0,0,0,.563,2.066,1.965,1.965,0,0,0,1.719.793,3.872,3.872,0,0,0,1.371-.223,3.061,3.061,0,0,0,1.012-.613l.6,1a3.7,3.7,0,0,1-1.2.738A4.762,4.762,0,0,1,18.516,15.164ZM18.273,7.6a1.673,1.673,0,0,0-1.332.621,2.938,2.938,0,0,0-.645,1.59l.016.039h3.813V9.727A2.462,2.462,0,0,0,19.672,8.2,1.638,1.638,0,0,0,18.273,7.6Zm.578-4.648h1.8L20.664,3l-2.1,2.031H17.406Zm6.68,1.555V6.547h1.6V7.688h-1.6V12.82a1.149,1.149,0,0,0,.246.836.89.89,0,0,0,.652.242,1.429,1.429,0,0,0,.3-.035A2.2,2.2,0,0,0,27,13.789l.211,1.055a1.36,1.36,0,0,1-.508.23,2.562,2.562,0,0,1-.664.09,1.993,1.993,0,0,1-1.492-.566,2.46,2.46,0,0,1-.555-1.777V7.688H22.648V6.547h1.344V4.508Zm7.25,3.4-.789-.047a1.762,1.762,0,0,0-1.027.289,1.854,1.854,0,0,0-.645.813V15H28.781V6.547h1.375L30.3,7.781a2.934,2.934,0,0,1,.887-1.023,2.073,2.073,0,0,1,1.215-.367,1.9,1.9,0,0,1,.328.027,2.174,2.174,0,0,1,.258.059ZM36.047,15H34.508V6.547h1.539Zm0-10.617H34.508V2.813h1.539Zm5.727,9.578a1.81,1.81,0,0,0,1.242-.473,1.494,1.494,0,0,0,.531-1.16h1.391l.023.047a2.428,2.428,0,0,1-.937,1.941,3.582,3.582,0,0,1-5-.363,4.674,4.674,0,0,1-.969-3.016v-.328a4.654,4.654,0,0,1,.973-3,3.317,3.317,0,0,1,2.746-1.215,3.189,3.189,0,0,1,2.316.875,2.775,2.775,0,0,1,.871,2.148l-.016.047h-1.4a1.865,1.865,0,0,0-.5-1.316,1.658,1.658,0,0,0-1.27-.543,1.777,1.777,0,0,0-1.652.879,4.114,4.114,0,0,0-.52,2.129v.328a4.192,4.192,0,0,0,.512,2.148A1.776,1.776,0,0,0,41.773,13.961ZM51.984,15q-.078-.383-.121-.676a4.96,4.96,0,0,1-.051-.59,3.589,3.589,0,0,1-1.121,1.02,2.867,2.867,0,0,1-1.488.41,2.763,2.763,0,0,1-2.012-.676,2.486,2.486,0,0,1-.691-1.863,2.183,2.183,0,0,1,.98-1.895,4.579,4.579,0,0,1,2.66-.684h1.672V9.211a1.551,1.551,0,0,0-.453-1.176A1.779,1.779,0,0,0,50.078,7.6a1.859,1.859,0,0,0-1.211.375,1.125,1.125,0,0,0-.461.9l-1.461.016-.016-.047a2.023,2.023,0,0,1,.863-1.687,3.578,3.578,0,0,1,2.371-.766,3.49,3.49,0,0,1,2.313.73,2.588,2.588,0,0,1,.875,2.105V13.3a7.923,7.923,0,0,0,.047.875A4.5,4.5,0,0,0,53.57,15ZM49.43,13.875a2.739,2.739,0,0,0,1.508-.43,2.042,2.042,0,0,0,.875-.984V11.086H50.086a2.24,2.24,0,0,0-1.488.469,1.4,1.4,0,0,0-.559,1.1,1.159,1.159,0,0,0,.352.891A1.472,1.472,0,0,0,49.43,13.875ZM60.5,12.727a1.026,1.026,0,0,0-.387-.828,3.732,3.732,0,0,0-1.465-.562,6.146,6.146,0,0,1-2.293-.9,1.814,1.814,0,0,1-.8-1.547,2.229,2.229,0,0,1,.879-1.766,3.879,3.879,0,0,1,4.605.047,2.239,2.239,0,0,1,.852,1.82l-.016.047H60.406a1.331,1.331,0,0,0-.48-.992A1.717,1.717,0,0,0,58.711,7.6a1.751,1.751,0,0,0-1.215.367,1.146,1.146,0,0,0-.4.875.927.927,0,0,0,.348.773,3.848,3.848,0,0,0,1.434.5,6.058,6.058,0,0,1,2.359.93,1.872,1.872,0,0,1,.8,1.57,2.226,2.226,0,0,1-.91,1.836,3.754,3.754,0,0,1-2.379.711,3.715,3.715,0,0,1-2.547-.82,2.341,2.341,0,0,1-.883-1.914l.016-.047H56.8a1.424,1.424,0,0,0,.609,1.2,2.358,2.358,0,0,0,1.336.379,2.1,2.1,0,0,0,1.285-.348A1.063,1.063,0,0,0,60.5,12.727ZM2.867,34.438V39H1.328V27.625H5.68a4.009,4.009,0,0,1,2.832.938,3.527,3.527,0,0,1,0,4.945,4.031,4.031,0,0,1-2.832.93Zm0-1.2H5.68a2.231,2.231,0,0,0,1.727-.621,2.227,2.227,0,0,0,.57-1.566A2.26,2.26,0,0,0,7.4,29.469a2.21,2.21,0,0,0-1.723-.633H2.867Zm12.422-1.328-.789-.047a1.762,1.762,0,0,0-1.027.289,1.854,1.854,0,0,0-.645.813V39H11.289V30.547h1.375l.148,1.234a2.934,2.934,0,0,1,.887-1.023,2.073,2.073,0,0,1,1.215-.367,1.9,1.9,0,0,1,.328.027,2.174,2.174,0,0,1,.258.059ZM16.375,34.7a4.654,4.654,0,0,1,1.016-3.09,3.406,3.406,0,0,1,2.758-1.215A3.439,3.439,0,0,1,22.926,31.6a4.639,4.639,0,0,1,1.02,3.094v.172a4.631,4.631,0,0,1-1.016,3.094,3.429,3.429,0,0,1-2.766,1.2,3.436,3.436,0,0,1-2.77-1.207,4.623,4.623,0,0,1-1.02-3.09Zm1.539.172a4.009,4.009,0,0,0,.566,2.219,2.046,2.046,0,0,0,3.355,0,3.988,3.988,0,0,0,.57-2.219V34.7a3.976,3.976,0,0,0-.574-2.211,1.882,1.882,0,0,0-1.684-.883,1.856,1.856,0,0,0-1.668.883,4.018,4.018,0,0,0-.566,2.211Zm7.563.063a5.641,5.641,0,0,1,.871-3.289,2.807,2.807,0,0,1,2.441-1.25,3.027,3.027,0,0,1,1.316.273,2.7,2.7,0,0,1,.98.8V26.813h1.539V39h-1.18l-.234-1.07a2.743,2.743,0,0,1-1.023.922,3.058,3.058,0,0,1-1.414.313,2.9,2.9,0,0,1-2.422-1.121,4.659,4.659,0,0,1-.875-2.949Zm1.539.164a3.588,3.588,0,0,0,.523,2.051,1.828,1.828,0,0,0,1.625.77A2.039,2.039,0,0,0,30.32,37.6a2.334,2.334,0,0,0,.766-.875V32.781a2.37,2.37,0,0,0-.77-.832,2.033,2.033,0,0,0-1.137-.309,1.759,1.759,0,0,0-1.637.914,4.718,4.718,0,0,0-.527,2.375ZM40.289,37.75A2.863,2.863,0,0,1,39.266,38.8a2.8,2.8,0,0,1-1.445.367,2.716,2.716,0,0,1-2.156-.883,4.1,4.1,0,0,1-.773-2.75V30.547H36.43v5a3.147,3.147,0,0,0,.4,1.859,1.481,1.481,0,0,0,1.242.508,2.531,2.531,0,0,0,1.355-.332,2.077,2.077,0,0,0,.809-.941V30.547h1.539V39H40.391Zm7.086.211a1.81,1.81,0,0,0,1.242-.473,1.494,1.494,0,0,0,.531-1.16h1.391l.023.047a2.428,2.428,0,0,1-.937,1.941,3.582,3.582,0,0,1-5-.363,4.674,4.674,0,0,1-.969-3.016v-.328a4.654,4.654,0,0,1,.973-3,3.317,3.317,0,0,1,2.746-1.215,3.189,3.189,0,0,1,2.316.875,2.775,2.775,0,0,1,.871,2.148l-.016.047h-1.4a1.865,1.865,0,0,0-.5-1.316,1.658,1.658,0,0,0-1.27-.543,1.777,1.777,0,0,0-1.652.879,4.114,4.114,0,0,0-.52,2.129v.328a4.192,4.192,0,0,0,.512,2.148A1.776,1.776,0,0,0,47.375,37.961Zm8.375,0a1.81,1.81,0,0,0,1.242-.473,1.494,1.494,0,0,0,.531-1.16h1.391l.023.047A2.428,2.428,0,0,1,58,38.316a3.582,3.582,0,0,1-5-.363,4.674,4.674,0,0,1-.969-3.016v-.328a4.654,4.654,0,0,1,.973-3,3.317,3.317,0,0,1,2.746-1.215,3.189,3.189,0,0,1,2.316.875,2.775,2.775,0,0,1,.871,2.148l-.016.047h-1.4a1.865,1.865,0,0,0-.5-1.316,1.658,1.658,0,0,0-1.27-.543,1.777,1.777,0,0,0-1.652.879,4.114,4.114,0,0,0-.52,2.129v.328a4.192,4.192,0,0,0,.512,2.148A1.776,1.776,0,0,0,55.75,37.961ZM62.43,39H60.891V30.547H62.43Zm0-10.617H60.891v-1.57H62.43ZM64.438,34.7a4.654,4.654,0,0,1,1.016-3.09,3.764,3.764,0,0,1,5.535,0,4.639,4.639,0,0,1,1.02,3.094v.172a4.631,4.631,0,0,1-1.016,3.094,3.781,3.781,0,0,1-5.535,0,4.623,4.623,0,0,1-1.02-3.09Zm1.539.172a4.009,4.009,0,0,0,.566,2.219,2.046,2.046,0,0,0,3.355,0,3.988,3.988,0,0,0,.57-2.219V34.7a3.976,3.976,0,0,0-.574-2.211,1.882,1.882,0,0,0-1.684-.883,1.856,1.856,0,0,0-1.668.883,4.018,4.018,0,0,0-.566,2.211Zm2.992-7.906h1.8l.016.047-2.1,2.031H67.523Zm6.3,3.586.109,1.258a3.069,3.069,0,0,1,1.059-1.043,2.824,2.824,0,0,1,1.449-.371,2.759,2.759,0,0,1,2.117.8,3.515,3.515,0,0,1,.75,2.473V39H79.211V33.7a2.287,2.287,0,0,0-.441-1.586,1.768,1.768,0,0,0-1.348-.469,2.386,2.386,0,0,0-1.207.285,2.072,2.072,0,0,0-.785.8V39H73.891V30.547Zm-68.3,30.32h.047l3.633-9.242h1.914V63H11.023V54.477l-.047-.008L7.531,63H6.461L2.914,54.188l-.047.008V63H1.328V51.625H3.352ZM14.656,58.7a4.654,4.654,0,0,1,1.016-3.09,3.406,3.406,0,0,1,2.758-1.215A3.439,3.439,0,0,1,21.207,55.6a4.639,4.639,0,0,1,1.02,3.094v.172a4.631,4.631,0,0,1-1.016,3.094,3.429,3.429,0,0,1-2.766,1.2,3.436,3.436,0,0,1-2.77-1.207,4.623,4.623,0,0,1-1.02-3.09Zm1.539.172a4.009,4.009,0,0,0,.566,2.219,2.046,2.046,0,0,0,3.355,0,3.988,3.988,0,0,0,.57-2.219V58.7a3.976,3.976,0,0,0-.574-2.211A1.882,1.882,0,0,0,18.43,55.6a1.856,1.856,0,0,0-1.668.883A4.018,4.018,0,0,0,16.2,58.7Zm9.289-4.32.109,1.258a3.069,3.069,0,0,1,1.059-1.043,2.824,2.824,0,0,1,1.449-.371,2.759,2.759,0,0,1,2.117.8,3.515,3.515,0,0,1,.75,2.473V63H29.43V57.7a2.287,2.287,0,0,0-.441-1.586,1.768,1.768,0,0,0-1.348-.469,2.386,2.386,0,0,0-1.207.285,2.072,2.072,0,0,0-.785.8V63H24.109V54.547ZM34.867,63H33.328V54.547h1.539Zm0-10.617H33.328v-1.57h1.539Zm4.508.125v2.039h1.6v1.141h-1.6V60.82a1.149,1.149,0,0,0,.246.836.89.89,0,0,0,.652.242,1.429,1.429,0,0,0,.3-.035,2.2,2.2,0,0,0,.273-.074l.211,1.055a1.36,1.36,0,0,1-.508.23,2.562,2.562,0,0,1-.664.09,1.993,1.993,0,0,1-1.492-.566,2.46,2.46,0,0,1-.555-1.777V55.688H36.492V54.547h1.344V52.508ZM42.266,58.7a4.654,4.654,0,0,1,1.016-3.09,3.764,3.764,0,0,1,5.535,0,4.639,4.639,0,0,1,1.02,3.094v.172a4.631,4.631,0,0,1-1.016,3.094,3.781,3.781,0,0,1-5.535,0,4.623,4.623,0,0,1-1.02-3.09Zm1.539.172a4.009,4.009,0,0,0,.566,2.219,2.046,2.046,0,0,0,3.355,0,3.988,3.988,0,0,0,.57-2.219V58.7a3.976,3.976,0,0,0-.574-2.211,1.882,1.882,0,0,0-1.684-.883,1.856,1.856,0,0,0-1.668.883A4.018,4.018,0,0,0,43.8,58.7Zm11.914-2.961-.789-.047a1.762,1.762,0,0,0-1.027.289,1.855,1.855,0,0,0-.645.813V63H51.719V54.547h1.375l.148,1.234a2.934,2.934,0,0,1,.887-1.023,2.073,2.073,0,0,1,1.215-.367,1.9,1.9,0,0,1,.328.027,2.175,2.175,0,0,1,.258.059Zm4.953,7.258A3.576,3.576,0,0,1,57.832,62a4.48,4.48,0,0,1-1.02-3.062v-.344a4.386,4.386,0,0,1,1.051-3.012,3.3,3.3,0,0,1,2.566-1.191,3.067,3.067,0,0,1,2.543,1.055,4.345,4.345,0,0,1,.848,2.8v.813H58.414l-.023.039a3.494,3.494,0,0,0,.563,2.066,1.965,1.965,0,0,0,1.719.793,3.872,3.872,0,0,0,1.371-.223,3.061,3.061,0,0,0,1.012-.613l.6,1a3.7,3.7,0,0,1-1.2.738A4.762,4.762,0,0,1,60.672,63.164ZM60.43,55.6a1.673,1.673,0,0,0-1.332.621,2.938,2.938,0,0,0-.645,1.59l.016.039h3.813v-.125a2.462,2.462,0,0,0-.453-1.523A1.638,1.638,0,0,0,60.43,55.6ZM65.188,58.7a4.654,4.654,0,0,1,1.016-3.09,3.764,3.764,0,0,1,5.535,0,4.639,4.639,0,0,1,1.02,3.094v.172a4.631,4.631,0,0,1-1.016,3.094,3.781,3.781,0,0,1-5.535,0,4.623,4.623,0,0,1-1.02-3.09Zm1.539.172a4.009,4.009,0,0,0,.566,2.219,2.046,2.046,0,0,0,3.355,0,3.988,3.988,0,0,0,.57-2.219V58.7a3.976,3.976,0,0,0-.574-2.211,1.882,1.882,0,0,0-1.684-.883,1.856,1.856,0,0,0-1.668.883,4.018,4.018,0,0,0-.566,2.211Z" transform="translate(1017 2302.107)" fill="#12263f"/>
    <g id="Trazado_889963" data-name="Trazado 889963" transform="translate(495 1921.107)" fill="#d6e1fd">
      <path d="M 130 92.5 L 27 92.5 C 23.69141387939453 92.5 20.48312950134277 91.85256195068359 17.46426010131836 90.57569885253906 C 14.54710865020752 89.34185028076172 11.92671775817871 87.57495880126953 9.675890922546387 85.32411193847656 C 7.42504358291626 83.07328033447266 5.658152103424072 80.45288848876953 4.424304485321045 77.53573608398438 C 3.147434711456299 74.51686859130859 2.5 71.30858612060547 2.5 68 L 2.5 27 C 2.5 23.69141387939453 3.147434711456299 20.48312950134277 4.424304485321045 17.46426010131836 C 5.658152103424072 14.54710865020752 7.42504358291626 11.92671775817871 9.675890922546387 9.675890922546387 C 11.92671775817871 7.42504358291626 14.54710865020752 5.658152103424072 17.46426010131836 4.424304485321045 C 20.48312950134277 3.147434711456299 23.69141387939453 2.5 27 2.5 L 130 2.5 C 133.30859375 2.5 136.5168762207031 3.147434711456299 139.5357360839844 4.424304485321045 C 142.4528961181641 5.658152103424072 145.0732879638672 7.42504358291626 147.3241119384766 9.675890922546387 C 149.574951171875 11.92671775817871 151.3418426513672 14.54710865020752 152.5756988525391 17.46426010131836 C 153.8525695800781 20.48312950134277 154.5 23.69141387939453 154.5 27 L 154.5 68 C 154.5 71.30858612060547 153.8525695800781 74.51686859130859 152.5756988525391 77.53573608398438 C 151.3418426513672 80.45288848876953 149.574951171875 83.07328033447266 147.3241119384766 85.32411193847656 C 145.0732879638672 87.57495880126953 142.4528961181641 89.34185028076172 139.5357360839844 90.57569885253906 C 136.5168762207031 91.85256195068359 133.30859375 92.5 130 92.5 Z" stroke="none"/>
      <path d="M 27 5 C 21.12359619140625 5 15.59890747070312 7.288406372070312 11.44364929199219 11.44364166259766 C 7.288406372070312 15.59890747070312 5 21.12359619140625 5 27 L 5 68 C 5 73.87640380859375 7.288406372070312 79.40109252929688 11.44364929199219 83.55635833740234 C 15.59890747070312 87.71159362792969 21.12359619140625 90 27 90 L 130 90 C 135.8764038085938 90 141.4010925292969 87.71159362792969 145.5563507080078 83.55635833740234 C 149.7115936279297 79.40109252929688 152 73.87640380859375 152 68 L 152 27 C 152 21.12359619140625 149.7115936279297 15.59890747070312 145.5563507080078 11.44364166259766 C 141.4010925292969 7.288406372070312 135.8764038085938 5 130 5 L 27 5 M 27 0 L 130 0 C 144.9116973876953 0 157 12.08831024169922 157 27 L 157 68 C 157 82.91168975830078 144.9116973876953 95 130 95 L 27 95 C 12.08830261230469 95 0 82.91168975830078 0 68 L 0 27 C 0 12.08831024169922 12.08830261230469 0 27 0 Z" stroke="none" fill="#201c77"/>
    </g>
    <g id="Trazado_889964" data-name="Trazado 889964" transform="translate(607 2045.107)" fill="#d6e1fd">
      <path d="M 130 92.5 L 27 92.5 C 23.69141387939453 92.5 20.48312950134277 91.85256195068359 17.46426010131836 90.57569885253906 C 14.54710865020752 89.34185028076172 11.92671775817871 87.57495880126953 9.675890922546387 85.32411193847656 C 7.42504358291626 83.07328033447266 5.658152103424072 80.45288848876953 4.424304485321045 77.53573608398438 C 3.147434711456299 74.51686859130859 2.5 71.30858612060547 2.5 68 L 2.5 27 C 2.5 23.69141387939453 3.147434711456299 20.48312950134277 4.424304485321045 17.46426010131836 C 5.658152103424072 14.54710865020752 7.42504358291626 11.92671775817871 9.675890922546387 9.675890922546387 C 11.92671775817871 7.42504358291626 14.54710865020752 5.658152103424072 17.46426010131836 4.424304485321045 C 20.48312950134277 3.147434711456299 23.69141387939453 2.5 27 2.5 L 130 2.5 C 133.30859375 2.5 136.5168762207031 3.147434711456299 139.5357360839844 4.424304485321045 C 142.4528961181641 5.658152103424072 145.0732879638672 7.42504358291626 147.3241119384766 9.675890922546387 C 149.574951171875 11.92671775817871 151.3418426513672 14.54710865020752 152.5756988525391 17.46426010131836 C 153.8525695800781 20.48312950134277 154.5 23.69141387939453 154.5 27 L 154.5 68 C 154.5 71.30858612060547 153.8525695800781 74.51686859130859 152.5756988525391 77.53573608398438 C 151.3418426513672 80.45288848876953 149.574951171875 83.07328033447266 147.3241119384766 85.32411193847656 C 145.0732879638672 87.57495880126953 142.4528961181641 89.34185028076172 139.5357360839844 90.57569885253906 C 136.5168762207031 91.85256195068359 133.30859375 92.5 130 92.5 Z" stroke="none"/>
      <path d="M 27 5 C 21.12359619140625 5 15.59890747070312 7.288406372070312 11.44364929199219 11.44364166259766 C 7.288406372070312 15.59890747070312 5 21.12359619140625 5 27 L 5 68 C 5 73.87640380859375 7.288406372070312 79.40109252929688 11.44364929199219 83.55635833740234 C 15.59890747070312 87.71159362792969 21.12359619140625 90 27 90 L 130 90 C 135.8764038085938 90 141.4010925292969 87.71159362792969 145.5563507080078 83.55635833740234 C 149.7115936279297 79.40109252929688 152 73.87640380859375 152 68 L 152 27 C 152 21.12359619140625 149.7115936279297 15.59890747070312 145.5563507080078 11.44364166259766 C 141.4010925292969 7.288406372070312 135.8764038085938 5 130 5 L 27 5 M 27 0 L 130 0 C 144.9116973876953 0 157 12.08831024169922 157 27 L 157 68 C 157 82.91168975830078 144.9116973876953 95 130 95 L 27 95 C 12.08830261230469 95 0 82.91168975830078 0 68 L 0 27 C 0 12.08831024169922 12.08830261230469 0 27 0 Z" stroke="none" fill="#201c77"/>
    </g>
    <g id="Trazado_889965" data-name="Trazado 889965" transform="translate(717 2168.107)" fill="#d6e1fd">
      <path d="M 130 92.5 L 27 92.5 C 23.69141387939453 92.5 20.48312950134277 91.85256195068359 17.46426010131836 90.57569885253906 C 14.54710865020752 89.34185028076172 11.92671775817871 87.57495880126953 9.675890922546387 85.32411193847656 C 7.42504358291626 83.07328033447266 5.658152103424072 80.45288848876953 4.424304485321045 77.53573608398438 C 3.147434711456299 74.51686859130859 2.5 71.30858612060547 2.5 68 L 2.5 27 C 2.5 23.69141387939453 3.147434711456299 20.48312950134277 4.424304485321045 17.46426010131836 C 5.658152103424072 14.54710865020752 7.42504358291626 11.92671775817871 9.675890922546387 9.675890922546387 C 11.92671775817871 7.42504358291626 14.54710865020752 5.658152103424072 17.46426010131836 4.424304485321045 C 20.48312950134277 3.147434711456299 23.69141387939453 2.5 27 2.5 L 130 2.5 C 133.30859375 2.5 136.5168762207031 3.147434711456299 139.5357360839844 4.424304485321045 C 142.4528961181641 5.658152103424072 145.0732879638672 7.42504358291626 147.3241119384766 9.675890922546387 C 149.574951171875 11.92671775817871 151.3418426513672 14.54710865020752 152.5756988525391 17.46426010131836 C 153.8525695800781 20.48312950134277 154.5 23.69141387939453 154.5 27 L 154.5 68 C 154.5 71.30858612060547 153.8525695800781 74.51686859130859 152.5756988525391 77.53573608398438 C 151.3418426513672 80.45288848876953 149.574951171875 83.07328033447266 147.3241119384766 85.32411193847656 C 145.0732879638672 87.57495880126953 142.4528961181641 89.34185028076172 139.5357360839844 90.57569885253906 C 136.5168762207031 91.85256195068359 133.30859375 92.5 130 92.5 Z" stroke="none"/>
      <path d="M 27 5 C 21.12359619140625 5 15.59890747070312 7.288406372070312 11.44364929199219 11.44364166259766 C 7.288406372070312 15.59890747070312 5 21.12359619140625 5 27 L 5 68 C 5 73.87640380859375 7.288406372070312 79.40109252929688 11.44364929199219 83.55635833740234 C 15.59890747070312 87.71159362792969 21.12359619140625 90 27 90 L 130 90 C 135.8764038085938 90 141.4010925292969 87.71159362792969 145.5563507080078 83.55635833740234 C 149.7115936279297 79.40109252929688 152 73.87640380859375 152 68 L 152 27 C 152 21.12359619140625 149.7115936279297 15.59890747070312 145.5563507080078 11.44364166259766 C 141.4010925292969 7.288406372070312 135.8764038085938 5 130 5 L 27 5 M 27 0 L 130 0 C 144.9116973876953 0 157 12.08831024169922 157 27 L 157 68 C 157 82.91168975830078 144.9116973876953 95 130 95 L 27 95 C 12.08830261230469 95 0 82.91168975830078 0 68 L 0 27 C 0 12.08831024169922 12.08830261230469 0 27 0 Z" stroke="none" fill="#201c77"/>
    </g>
    <g id="Trazado_889966" data-name="Trazado 889966" transform="translate(828 2292.107)" fill="#d6e1fd">
      <path d="M 130 92.5 L 27 92.5 C 23.69141387939453 92.5 20.48312950134277 91.85256195068359 17.46426010131836 90.57569885253906 C 14.54710865020752 89.34185028076172 11.92671775817871 87.57495880126953 9.675890922546387 85.32411193847656 C 7.42504358291626 83.07328033447266 5.658152103424072 80.45288848876953 4.424304485321045 77.53573608398438 C 3.147434711456299 74.51686859130859 2.5 71.30858612060547 2.5 68 L 2.5 27 C 2.5 23.69141387939453 3.147434711456299 20.48312950134277 4.424304485321045 17.46426010131836 C 5.658152103424072 14.54710865020752 7.42504358291626 11.92671775817871 9.675890922546387 9.675890922546387 C 11.92671775817871 7.42504358291626 14.54710865020752 5.658152103424072 17.46426010131836 4.424304485321045 C 20.48312950134277 3.147434711456299 23.69141387939453 2.5 27 2.5 L 130 2.5 C 133.30859375 2.5 136.5168762207031 3.147434711456299 139.5357360839844 4.424304485321045 C 142.4528961181641 5.658152103424072 145.0732879638672 7.42504358291626 147.3241119384766 9.675890922546387 C 149.574951171875 11.92671775817871 151.3418426513672 14.54710865020752 152.5756988525391 17.46426010131836 C 153.8525695800781 20.48312950134277 154.5 23.69141387939453 154.5 27 L 154.5 68 C 154.5 71.30858612060547 153.8525695800781 74.51686859130859 152.5756988525391 77.53573608398438 C 151.3418426513672 80.45288848876953 149.574951171875 83.07328033447266 147.3241119384766 85.32411193847656 C 145.0732879638672 87.57495880126953 142.4528961181641 89.34185028076172 139.5357360839844 90.57569885253906 C 136.5168762207031 91.85256195068359 133.30859375 92.5 130 92.5 Z" stroke="none"/>
      <path d="M 27 5 C 21.12359619140625 5 15.59890747070312 7.288406372070312 11.44364929199219 11.44364166259766 C 7.288406372070312 15.59890747070312 5 21.12359619140625 5 27 L 5 68 C 5 73.87640380859375 7.288406372070312 79.40109252929688 11.44364929199219 83.55635833740234 C 15.59890747070312 87.71159362792969 21.12359619140625 90 27 90 L 130 90 C 135.8764038085938 90 141.4010925292969 87.71159362792969 145.5563507080078 83.55635833740234 C 149.7115936279297 79.40109252929688 152 73.87640380859375 152 68 L 152 27 C 152 21.12359619140625 149.7115936279297 15.59890747070312 145.5563507080078 11.44364166259766 C 141.4010925292969 7.288406372070312 135.8764038085938 5 130 5 L 27 5 M 27 0 L 130 0 C 144.9116973876953 0 157 12.08831024169922 157 27 L 157 68 C 157 82.91168975830078 144.9116973876953 95 130 95 L 27 95 C 12.08830261230469 95 0 82.91168975830078 0 68 L 0 27 C 0 12.08831024169922 12.08830261230469 0 27 0 Z" stroke="none" fill="#201c77"/>
    </g>
    <path id="Trazado_889967" data-name="Trazado 889967" d="M3.7,10.281V15H1.8V3.625H5.711a4.489,4.489,0,0,1,2.938.859A3,3,0,0,1,9.688,6.938a2.537,2.537,0,0,1-.457,1.52A3.136,3.136,0,0,1,7.9,9.477a2.4,2.4,0,0,1,1.387.992,3.178,3.178,0,0,1,.426,1.7v.945a3.833,3.833,0,0,0,.125.977,1.4,1.4,0,0,0,.414.727V15H8.3a1.249,1.249,0,0,1-.4-.8A7.035,7.035,0,0,1,7.813,13.1v-.914a1.9,1.9,0,0,0-.5-1.391,1.829,1.829,0,0,0-1.371-.516Zm0-1.523H5.609A2.576,2.576,0,0,0,7.273,8.32,1.642,1.642,0,0,0,7.8,6.984a1.767,1.767,0,0,0-.516-1.348,2.212,2.212,0,0,0-1.57-.488H3.7Zm11.672,6.406A3.681,3.681,0,0,1,12.473,14a4.374,4.374,0,0,1-1.043-3.027v-.312A4.522,4.522,0,0,1,12.473,7.59a3.37,3.37,0,0,1,2.691-1.2,3.163,3.163,0,0,1,2.578,1.051,4.249,4.249,0,0,1,.875,2.809v1.023H13.391l-.016.039A2.77,2.77,0,0,0,13.922,13a1.866,1.866,0,0,0,1.555.648,4.277,4.277,0,0,0,1.34-.187,3.825,3.825,0,0,0,1.051-.539l.617,1.242a4.023,4.023,0,0,1-1.281.711A5.37,5.37,0,0,1,15.367,15.164Zm-.2-7.25a1.467,1.467,0,0,0-1.187.535,2.652,2.652,0,0,0-.555,1.395l.016.039h3.3V9.734a2.134,2.134,0,0,0-.379-1.316A1.4,1.4,0,0,0,15.164,7.914ZM23.6,13.648a1.577,1.577,0,0,0,1.1-.406,1.33,1.33,0,0,0,.449-1.031h1.719l.016.047a2.549,2.549,0,0,1-.941,2.047,3.413,3.413,0,0,1-2.34.859,3.444,3.444,0,0,1-2.82-1.207,4.633,4.633,0,0,1-.992-3.043v-.273A4.637,4.637,0,0,1,20.781,7.6a3.43,3.43,0,0,1,2.813-1.211,3.316,3.316,0,0,1,2.4.887,2.894,2.894,0,0,1,.891,2.254l-.016.047H25.148a1.715,1.715,0,0,0-.43-1.18,1.432,1.432,0,0,0-1.125-.484,1.549,1.549,0,0,0-1.461.785,3.885,3.885,0,0,0-.445,1.941v.273a3.921,3.921,0,0,0,.441,1.957A1.558,1.558,0,0,0,23.6,13.648ZM28.125,10.7A4.59,4.59,0,0,1,29.16,7.6a3.535,3.535,0,0,1,2.832-1.207A3.562,3.562,0,0,1,34.848,7.6a4.59,4.59,0,0,1,1.035,3.1v.164a4.583,4.583,0,0,1-1.035,3.105,3.555,3.555,0,0,1-2.84,1.2,3.558,3.558,0,0,1-2.848-1.2,4.587,4.587,0,0,1-1.035-3.1Zm1.9.164a3.75,3.75,0,0,0,.484,2.016,1.827,1.827,0,0,0,2.988,0,3.684,3.684,0,0,0,.5-2.012V10.7a3.676,3.676,0,0,0-.5-2,1.658,1.658,0,0,0-1.5-.785,1.626,1.626,0,0,0-1.48.785,3.722,3.722,0,0,0-.488,2ZM39.563,15h-1.9V2.813h1.9Zm5.711.164A3.681,3.681,0,0,1,42.379,14a4.374,4.374,0,0,1-1.043-3.027v-.312A4.522,4.522,0,0,1,42.379,7.59a3.37,3.37,0,0,1,2.691-1.2,3.163,3.163,0,0,1,2.578,1.051,4.249,4.249,0,0,1,.875,2.809v1.023H43.3l-.016.039A2.77,2.77,0,0,0,43.828,13a1.866,1.866,0,0,0,1.555.648,4.277,4.277,0,0,0,1.34-.187,3.825,3.825,0,0,0,1.051-.539l.617,1.242a4.023,4.023,0,0,1-1.281.711A5.37,5.37,0,0,1,45.273,15.164Zm-.2-7.25a1.467,1.467,0,0,0-1.187.535,2.652,2.652,0,0,0-.555,1.395l.016.039h3.3V9.734a2.134,2.134,0,0,0-.379-1.316A1.4,1.4,0,0,0,45.07,7.914Zm8.438,5.734a1.577,1.577,0,0,0,1.1-.406,1.33,1.33,0,0,0,.449-1.031h1.719l.016.047a2.549,2.549,0,0,1-.941,2.047,3.768,3.768,0,0,1-5.16-.348,4.633,4.633,0,0,1-.992-3.043v-.273A4.637,4.637,0,0,1,50.688,7.6,3.43,3.43,0,0,1,53.5,6.391a3.316,3.316,0,0,1,2.4.887,2.894,2.894,0,0,1,.891,2.254l-.016.047H55.055a1.715,1.715,0,0,0-.43-1.18A1.432,1.432,0,0,0,53.5,7.914a1.549,1.549,0,0,0-1.461.785,3.885,3.885,0,0,0-.445,1.941v.273a3.921,3.921,0,0,0,.441,1.957A1.558,1.558,0,0,0,53.508,13.648Zm8.32,0a1.577,1.577,0,0,0,1.1-.406,1.33,1.33,0,0,0,.449-1.031h1.719l.016.047a2.549,2.549,0,0,1-.941,2.047,3.768,3.768,0,0,1-5.16-.348,4.633,4.633,0,0,1-.992-3.043v-.273A4.637,4.637,0,0,1,59.008,7.6,3.43,3.43,0,0,1,61.82,6.391a3.316,3.316,0,0,1,2.4.887,2.894,2.894,0,0,1,.891,2.254l-.016.047H63.375a1.715,1.715,0,0,0-.43-1.18,1.432,1.432,0,0,0-1.125-.484,1.549,1.549,0,0,0-1.461.785,3.885,3.885,0,0,0-.445,1.941v.273a3.921,3.921,0,0,0,.441,1.957A1.558,1.558,0,0,0,61.828,13.648ZM68.727,15h-1.9V6.547h1.9Zm0-10.523h-1.9V2.813h1.9ZM70.5,10.7a4.59,4.59,0,0,1,1.035-3.1,3.953,3.953,0,0,1,5.688,0,4.59,4.59,0,0,1,1.035,3.1v.164a4.583,4.583,0,0,1-1.035,3.105,3.967,3.967,0,0,1-5.687,0,4.587,4.587,0,0,1-1.035-3.1Zm1.9.164a3.75,3.75,0,0,0,.484,2.016,1.827,1.827,0,0,0,2.988,0,3.684,3.684,0,0,0,.5-2.012V10.7a3.676,3.676,0,0,0-.5-2,1.658,1.658,0,0,0-1.5-.785,1.626,1.626,0,0,0-1.48.785,3.722,3.722,0,0,0-.488,2Zm2.578-7.914h2.148l.016.047L75.008,5.023H73.484Zm6.656,3.6.109,1.219a3.023,3.023,0,0,1,1.043-1.012A2.783,2.783,0,0,1,84.2,6.391a2.64,2.64,0,0,1,2.059.813A3.692,3.692,0,0,1,87,9.742V15H85.1V9.758a2.042,2.042,0,0,0-.383-1.4,1.5,1.5,0,0,0-1.156-.414,2.267,2.267,0,0,0-1.055.23,1.847,1.847,0,0,0-.711.637V15H79.9V6.547Zm10.977,4.344a5.574,5.574,0,0,1,.867-3.262,2.8,2.8,0,0,1,2.438-1.238,2.666,2.666,0,0,1,1.23.277,2.785,2.785,0,0,1,.941.793V2.813h1.9V15H98.445l-.227-1.07a2.82,2.82,0,0,1-.984.918,2.738,2.738,0,0,1-1.336.316,2.876,2.876,0,0,1-2.422-1.133,4.766,4.766,0,0,1-.867-2.977Zm1.9.164a3.4,3.4,0,0,0,.449,1.867,1.573,1.573,0,0,0,1.426.7,1.906,1.906,0,0,0,1.02-.258,1.963,1.963,0,0,0,.684-.734V8.938a2,2,0,0,0-.687-.73,1.859,1.859,0,0,0-1-.262,1.531,1.531,0,0,0-1.43.816,4.308,4.308,0,0,0-.461,2.129Zm11.1,4.109A3.681,3.681,0,0,1,102.715,14a4.374,4.374,0,0,1-1.043-3.027v-.312a4.522,4.522,0,0,1,1.043-3.066,3.37,3.37,0,0,1,2.691-1.2,3.163,3.163,0,0,1,2.578,1.051,4.249,4.249,0,0,1,.875,2.809v1.023h-5.227l-.016.039A2.77,2.77,0,0,0,104.164,13a1.866,1.866,0,0,0,1.555.648,4.277,4.277,0,0,0,1.34-.187,3.825,3.825,0,0,0,1.051-.539l.617,1.242a4.023,4.023,0,0,1-1.281.711A5.37,5.37,0,0,1,105.609,15.164Zm-.2-7.25a1.467,1.467,0,0,0-1.187.535,2.652,2.652,0,0,0-.555,1.395l.016.039h3.3V9.734a2.134,2.134,0,0,0-.379-1.316A1.4,1.4,0,0,0,105.406,7.914ZM35.336,34.891a5.574,5.574,0,0,1,.867-3.262,2.8,2.8,0,0,1,2.438-1.238,2.666,2.666,0,0,1,1.23.277,2.785,2.785,0,0,1,.941.793V26.813h1.9V39H41.172l-.227-1.07a2.82,2.82,0,0,1-.984.918,2.738,2.738,0,0,1-1.336.316A2.876,2.876,0,0,1,36.2,38.031a4.766,4.766,0,0,1-.867-2.977Zm1.9.164a3.4,3.4,0,0,0,.449,1.867,1.573,1.573,0,0,0,1.426.7,1.906,1.906,0,0,0,1.02-.258,1.963,1.963,0,0,0,.684-.734V32.938a2,2,0,0,0-.687-.73,1.859,1.859,0,0,0-1-.262,1.531,1.531,0,0,0-1.43.816,4.308,4.308,0,0,0-.461,2.129ZM49.844,39q-.1-.32-.168-.625a4.468,4.468,0,0,1-.09-.609,3.256,3.256,0,0,1-1.023,1,2.633,2.633,0,0,1-1.43.4,2.81,2.81,0,0,1-2.027-.68,2.468,2.468,0,0,1-.707-1.867,2.206,2.206,0,0,1,.969-1.91,4.678,4.678,0,0,1,2.727-.684H49.57v-.742a1.38,1.38,0,0,0-.387-1.039,1.547,1.547,0,0,0-1.121-.375,1.6,1.6,0,0,0-1.031.309.981.981,0,0,0-.383.8l-1.828.008-.008-.047a2.094,2.094,0,0,1,.895-1.773,3.79,3.79,0,0,1,2.473-.773,3.617,3.617,0,0,1,2.383.75,2.64,2.64,0,0,1,.906,2.156v3.758a6.93,6.93,0,0,0,.07,1,5.331,5.331,0,0,0,.227.941Zm-2.32-1.359a2.373,2.373,0,0,0,1.285-.359,1.81,1.81,0,0,0,.762-.82v-1.25H48.063a1.9,1.9,0,0,0-1.3.41,1.246,1.246,0,0,0-.469.965.984.984,0,0,0,.316.77A1.315,1.315,0,0,0,47.523,37.641Zm8.359-9.148v2.055H57.4v1.406H55.883v4.672a1.019,1.019,0,0,0,.227.746.821.821,0,0,0,.6.223,1.678,1.678,0,0,0,.3-.027,1.852,1.852,0,0,0,.281-.074l.2,1.391a2.181,2.181,0,0,1-.574.207,3.161,3.161,0,0,1-.691.074,2.19,2.19,0,0,1-1.645-.613,2.674,2.674,0,0,1-.6-1.926V31.953H52.7V30.547h1.289V28.492Zm2.7,6.2a4.59,4.59,0,0,1,1.035-3.1,3.953,3.953,0,0,1,5.688,0,4.59,4.59,0,0,1,1.035,3.1v.164A4.583,4.583,0,0,1,65.3,37.965a3.967,3.967,0,0,1-5.687,0,4.587,4.587,0,0,1-1.035-3.1Zm1.9.164a3.75,3.75,0,0,0,.484,2.016,1.827,1.827,0,0,0,2.988,0,3.684,3.684,0,0,0,.5-2.012V34.7a3.676,3.676,0,0,0-.5-2,1.658,1.658,0,0,0-1.5-.785,1.626,1.626,0,0,0-1.48.785,3.722,3.722,0,0,0-.488,2Zm12.266,1.828a.875.875,0,0,0-.371-.723,3.838,3.838,0,0,0-1.4-.512,5.7,5.7,0,0,1-2.281-.9,1.893,1.893,0,0,1-.789-1.594,2.3,2.3,0,0,1,.9-1.816,3.56,3.56,0,0,1,2.367-.754,3.671,3.671,0,0,1,2.441.777,2.252,2.252,0,0,1,.887,1.871l-.016.047h-1.82a1.185,1.185,0,0,0-.406-.895,1.528,1.528,0,0,0-1.086-.379,1.552,1.552,0,0,0-1.047.313.977.977,0,0,0-.359.766.823.823,0,0,0,.336.688,3.682,3.682,0,0,0,1.383.461,5.727,5.727,0,0,1,2.344.918,1.939,1.939,0,0,1,.789,1.621,2.246,2.246,0,0,1-.941,1.863,3.965,3.965,0,0,1-2.48.723,3.786,3.786,0,0,1-2.6-.844,2.383,2.383,0,0,1-.906-1.937l.016-.047h1.766a1.266,1.266,0,0,0,.531,1.07,2.135,2.135,0,0,0,1.219.336,1.909,1.909,0,0,0,1.129-.289A.9.9,0,0,0,72.742,36.688Z" transform="translate(518 1943.107)" fill="#12263f"/>
    <path id="Trazado_889968" data-name="Trazado 889968" d="M14.738,10.688V15h-1.9V3.625H17.2a4.214,4.214,0,0,1,2.949.973,3.3,3.3,0,0,1,1.066,2.559,3.293,3.293,0,0,1-1.066,2.566,4.236,4.236,0,0,1-2.949.965Zm0-1.523H17.2A2.081,2.081,0,0,0,18.785,8.6a2,2,0,0,0,.531-1.43,2.055,2.055,0,0,0-.531-1.445A2.049,2.049,0,0,0,17.2,5.148H14.738Zm12.3-.906-.812-.031a1.7,1.7,0,0,0-.926.234,1.544,1.544,0,0,0-.574.664V15h-1.9V6.547h1.734l.125,1.227a2.711,2.711,0,0,1,.824-1.016,1.919,1.919,0,0,1,1.16-.367,1.769,1.769,0,0,1,.32.027,2.339,2.339,0,0,1,.273.066Zm4.844,6.906A3.681,3.681,0,0,1,28.992,14a4.374,4.374,0,0,1-1.043-3.027v-.312A4.522,4.522,0,0,1,28.992,7.59a3.37,3.37,0,0,1,2.691-1.2,3.163,3.163,0,0,1,2.578,1.051,4.249,4.249,0,0,1,.875,2.809v1.023H29.91l-.016.039A2.77,2.77,0,0,0,30.441,13,1.866,1.866,0,0,0,32,13.648a4.277,4.277,0,0,0,1.34-.187,3.825,3.825,0,0,0,1.051-.539L35,14.164a4.023,4.023,0,0,1-1.281.711A5.37,5.37,0,0,1,31.887,15.164Zm-.2-7.25a1.467,1.467,0,0,0-1.187.535,2.652,2.652,0,0,0-.555,1.395l.016.039h3.3V9.734a2.134,2.134,0,0,0-.379-1.316A1.4,1.4,0,0,0,31.684,7.914Zm12.4,3.141a4.766,4.766,0,0,1-.867,2.977A2.868,2.868,0,0,1,40.8,15.164a2.99,2.99,0,0,1-1.273-.258,2.62,2.62,0,0,1-.953-.758v4.1h-1.9V6.547h1.6l.188,1.063a2.819,2.819,0,0,1,.98-.906,2.743,2.743,0,0,1,1.332-.312,2.807,2.807,0,0,1,2.434,1.238,5.556,5.556,0,0,1,.871,3.262Zm-1.891-.164A4.118,4.118,0,0,0,41.7,8.77a1.588,1.588,0,0,0-1.457-.824,1.893,1.893,0,0,0-1.008.254,1.869,1.869,0,0,0-.664.707v3.82a1.766,1.766,0,0,0,.664.684,2.024,2.024,0,0,0,1.023.238,1.629,1.629,0,0,0,1.449-.715,3.312,3.312,0,0,0,.48-1.879ZM50.832,15q-.1-.32-.168-.625a4.468,4.468,0,0,1-.09-.609,3.256,3.256,0,0,1-1.023,1,2.633,2.633,0,0,1-1.43.4,2.81,2.81,0,0,1-2.027-.68,2.468,2.468,0,0,1-.707-1.867,2.206,2.206,0,0,1,.969-1.91,4.678,4.678,0,0,1,2.727-.684h1.477V9.281a1.38,1.38,0,0,0-.387-1.039,1.547,1.547,0,0,0-1.121-.375,1.6,1.6,0,0,0-1.031.309.981.981,0,0,0-.383.8l-1.828.008L45.8,8.938A2.094,2.094,0,0,1,46.7,7.164a3.79,3.79,0,0,1,2.473-.773,3.617,3.617,0,0,1,2.383.75A2.64,2.64,0,0,1,52.457,9.3v3.758a6.93,6.93,0,0,0,.07,1,5.331,5.331,0,0,0,.227.941Zm-2.32-1.359a2.373,2.373,0,0,0,1.285-.359,1.81,1.81,0,0,0,.762-.82v-1.25H49.051a1.9,1.9,0,0,0-1.3.41,1.246,1.246,0,0,0-.469.965.984.984,0,0,0,.316.77A1.315,1.315,0,0,0,48.512,13.641ZM58.652,8.258l-.812-.031a1.7,1.7,0,0,0-.926.234,1.544,1.544,0,0,0-.574.664V15h-1.9V6.547h1.734L56.3,7.773a2.711,2.711,0,0,1,.824-1.016,1.919,1.919,0,0,1,1.16-.367,1.769,1.769,0,0,1,.32.027,2.339,2.339,0,0,1,.273.066ZM65.152,15q-.1-.32-.168-.625a4.467,4.467,0,0,1-.09-.609,3.256,3.256,0,0,1-1.023,1,2.633,2.633,0,0,1-1.43.4,2.81,2.81,0,0,1-2.027-.68,2.468,2.468,0,0,1-.707-1.867,2.206,2.206,0,0,1,.969-1.91,4.678,4.678,0,0,1,2.727-.684h1.477V9.281a1.38,1.38,0,0,0-.387-1.039,1.547,1.547,0,0,0-1.121-.375,1.6,1.6,0,0,0-1.031.309.981.981,0,0,0-.383.8l-1.828.008-.008-.047a2.094,2.094,0,0,1,.895-1.773,3.79,3.79,0,0,1,2.473-.773,3.616,3.616,0,0,1,2.383.75A2.64,2.64,0,0,1,66.777,9.3v3.758a6.93,6.93,0,0,0,.07,1,5.331,5.331,0,0,0,.227.941Zm-2.32-1.359a2.373,2.373,0,0,0,1.285-.359,1.81,1.81,0,0,0,.762-.82v-1.25H63.371a1.9,1.9,0,0,0-1.3.41,1.246,1.246,0,0,0-.469.965.984.984,0,0,0,.316.77A1.315,1.315,0,0,0,62.832,13.641Zm9.375.008a1.577,1.577,0,0,0,1.1-.406,1.33,1.33,0,0,0,.449-1.031h1.719l.016.047a2.549,2.549,0,0,1-.941,2.047,3.768,3.768,0,0,1-5.16-.348,4.633,4.633,0,0,1-.992-3.043v-.273A4.637,4.637,0,0,1,69.387,7.6,3.43,3.43,0,0,1,72.2,6.391a3.316,3.316,0,0,1,2.4.887,2.894,2.894,0,0,1,.891,2.254l-.016.047H73.754a1.715,1.715,0,0,0-.43-1.18A1.432,1.432,0,0,0,72.2,7.914a1.549,1.549,0,0,0-1.461.785,3.885,3.885,0,0,0-.445,1.941v.273a3.921,3.921,0,0,0,.441,1.957A1.558,1.558,0,0,0,72.207,13.648ZM79.105,15h-1.9V6.547h1.9Zm0-10.523h-1.9V2.813h1.9ZM80.879,10.7a4.59,4.59,0,0,1,1.035-3.1,3.953,3.953,0,0,1,5.688,0,4.59,4.59,0,0,1,1.035,3.1v.164A4.583,4.583,0,0,1,87.6,13.965a3.967,3.967,0,0,1-5.687,0,4.587,4.587,0,0,1-1.035-3.1Zm1.9.164a3.75,3.75,0,0,0,.484,2.016,1.827,1.827,0,0,0,2.988,0,3.684,3.684,0,0,0,.5-2.012V10.7a3.676,3.676,0,0,0-.5-2,1.658,1.658,0,0,0-1.5-.785,1.626,1.626,0,0,0-1.48.785,3.722,3.722,0,0,0-.488,2Zm2.578-7.914H87.5l.016.047L85.387,5.023H83.863Zm6.656,3.6.109,1.219a3.023,3.023,0,0,1,1.043-1.012,2.783,2.783,0,0,1,1.418-.363,2.64,2.64,0,0,1,2.059.813,3.692,3.692,0,0,1,.738,2.539V15h-1.9V9.758a2.042,2.042,0,0,0-.383-1.4,1.5,1.5,0,0,0-1.156-.414,2.267,2.267,0,0,0-1.055.23,1.847,1.847,0,0,0-.711.637V15h-1.9V6.547Z" transform="translate(630 2079.107)" fill="#12263f"/>
    <path id="Trazado_889969" data-name="Trazado 889969" d="M10.023,9.883H5.57v3.6h5.25V15H3.672V3.625h7.094V5.148H5.57V8.359h4.453Zm4.031-3.336.109,1.219a3.024,3.024,0,0,1,1.043-1.012,2.783,2.783,0,0,1,1.418-.363,2.64,2.64,0,0,1,2.059.813,3.692,3.692,0,0,1,.738,2.539V15h-1.9V9.758a2.042,2.042,0,0,0-.383-1.4,1.5,1.5,0,0,0-1.156-.414,2.267,2.267,0,0,0-1.055.23,1.847,1.847,0,0,0-.711.637V15h-1.9V6.547Zm9.773-2.055V6.547h1.516V7.953H23.828v4.672a1.019,1.019,0,0,0,.227.746.821.821,0,0,0,.6.223,1.678,1.678,0,0,0,.3-.027,1.852,1.852,0,0,0,.281-.074l.2,1.391a2.181,2.181,0,0,1-.574.207,3.161,3.161,0,0,1-.691.074,2.19,2.19,0,0,1-1.645-.613,2.674,2.674,0,0,1-.6-1.926V7.953H20.648V6.547h1.289V4.492Zm7.258,3.766-.812-.031a1.7,1.7,0,0,0-.926.234,1.544,1.544,0,0,0-.574.664V15h-1.9V6.547h1.734l.125,1.227a2.711,2.711,0,0,1,.824-1.016,1.919,1.919,0,0,1,1.16-.367,1.769,1.769,0,0,1,.32.027,2.339,2.339,0,0,1,.273.066Zm4.844,6.906A3.681,3.681,0,0,1,33.035,14a4.374,4.374,0,0,1-1.043-3.027v-.312A4.522,4.522,0,0,1,33.035,7.59a3.37,3.37,0,0,1,2.691-1.2A3.163,3.163,0,0,1,38.3,7.441a4.249,4.249,0,0,1,.875,2.809v1.023H33.953l-.016.039A2.77,2.77,0,0,0,34.484,13a1.866,1.866,0,0,0,1.555.648,4.277,4.277,0,0,0,1.34-.187,3.825,3.825,0,0,0,1.051-.539l.617,1.242a4.023,4.023,0,0,1-1.281.711A5.37,5.37,0,0,1,35.93,15.164Zm-.2-7.25a1.467,1.467,0,0,0-1.187.535,2.652,2.652,0,0,0-.555,1.395L34,9.883h3.3V9.734a2.134,2.134,0,0,0-.379-1.316A1.4,1.4,0,0,0,35.727,7.914Zm6.711-1.367.109,1.219A3.024,3.024,0,0,1,43.59,6.754a2.783,2.783,0,0,1,1.418-.363,2.64,2.64,0,0,1,2.059.813A3.692,3.692,0,0,1,47.8,9.742V15h-1.9V9.758a2.042,2.042,0,0,0-.383-1.4,1.5,1.5,0,0,0-1.156-.414,2.267,2.267,0,0,0-1.055.23,1.847,1.847,0,0,0-.711.637V15H40.7V6.547ZM54.875,15q-.1-.32-.168-.625a4.468,4.468,0,0,1-.09-.609,3.256,3.256,0,0,1-1.023,1,2.633,2.633,0,0,1-1.43.4,2.81,2.81,0,0,1-2.027-.68,2.468,2.468,0,0,1-.707-1.867,2.206,2.206,0,0,1,.969-1.91,4.678,4.678,0,0,1,2.727-.684H54.6V9.281a1.38,1.38,0,0,0-.387-1.039,1.547,1.547,0,0,0-1.121-.375,1.6,1.6,0,0,0-1.031.309.981.981,0,0,0-.383.8l-1.828.008-.008-.047a2.094,2.094,0,0,1,.895-1.773,3.79,3.79,0,0,1,2.473-.773,3.617,3.617,0,0,1,2.383.75A2.64,2.64,0,0,1,56.5,9.3v3.758a6.93,6.93,0,0,0,.07,1A5.331,5.331,0,0,0,56.8,15Zm-2.32-1.359a2.373,2.373,0,0,0,1.285-.359,1.81,1.81,0,0,0,.762-.82v-1.25H53.094a1.9,1.9,0,0,0-1.3.41,1.246,1.246,0,0,0-.469.965.984.984,0,0,0,.316.77A1.315,1.315,0,0,0,52.555,13.641Zm7.664-7.094.1,1.1a2.865,2.865,0,0,1,1.039-.93A3.065,3.065,0,0,1,62.8,6.391a2.608,2.608,0,0,1,1.422.375,2.266,2.266,0,0,1,.891,1.125,2.962,2.962,0,0,1,1.031-1.1,2.781,2.781,0,0,1,1.5-.4,2.479,2.479,0,0,1,2.012.887A4.125,4.125,0,0,1,70.4,9.961V15H68.5V9.953a2.49,2.49,0,0,0-.371-1.559,1.361,1.361,0,0,0-1.113-.449,1.629,1.629,0,0,0-1.031.328,1.828,1.828,0,0,0-.609.883q0,.117.008.2t.008.164V15h-1.9V9.953a2.462,2.462,0,0,0-.379-1.539A1.347,1.347,0,0,0,62,7.945a2,2,0,0,0-.98.223,1.642,1.642,0,0,0-.637.629V15h-1.9V6.547ZM74.422,15h-1.9V6.547h1.9Zm0-10.523h-1.9V2.813h1.9Zm5.711,10.688A3.681,3.681,0,0,1,77.238,14,4.374,4.374,0,0,1,76.2,10.969v-.312A4.522,4.522,0,0,1,77.238,7.59a3.37,3.37,0,0,1,2.691-1.2,3.163,3.163,0,0,1,2.578,1.051,4.249,4.249,0,0,1,.875,2.809v1.023H78.156l-.016.039A2.77,2.77,0,0,0,78.688,13a1.866,1.866,0,0,0,1.555.648,4.277,4.277,0,0,0,1.34-.187,3.825,3.825,0,0,0,1.051-.539l.617,1.242a4.023,4.023,0,0,1-1.281.711A5.37,5.37,0,0,1,80.133,15.164Zm-.2-7.25a1.467,1.467,0,0,0-1.187.535,2.652,2.652,0,0,0-.555,1.395l.016.039h3.3V9.734a2.134,2.134,0,0,0-.379-1.316A1.4,1.4,0,0,0,79.93,7.914Zm6.711-1.367.109,1.219a3.023,3.023,0,0,1,1.043-1.012,2.783,2.783,0,0,1,1.418-.363A2.64,2.64,0,0,1,91.27,7.2a3.692,3.692,0,0,1,.738,2.539V15h-1.9V9.758a2.042,2.042,0,0,0-.383-1.4,1.5,1.5,0,0,0-1.156-.414,2.267,2.267,0,0,0-1.055.23,1.847,1.847,0,0,0-.711.637V15h-1.9V6.547Zm9.773-2.055V6.547H97.93V7.953H96.414v4.672a1.019,1.019,0,0,0,.227.746.821.821,0,0,0,.6.223,1.679,1.679,0,0,0,.3-.027,1.852,1.852,0,0,0,.281-.074l.2,1.391a2.181,2.181,0,0,1-.574.207,3.161,3.161,0,0,1-.691.074,2.19,2.19,0,0,1-1.645-.613,2.674,2.674,0,0,1-.6-1.926V7.953H93.234V6.547h1.289V4.492Zm2.7,6.2a4.59,4.59,0,0,1,1.035-3.1,3.953,3.953,0,0,1,5.688,0,4.59,4.59,0,0,1,1.035,3.1v.164a4.583,4.583,0,0,1-1.035,3.105,3.967,3.967,0,0,1-5.687,0,4.587,4.587,0,0,1-1.035-3.1Zm1.9.164a3.75,3.75,0,0,0,.484,2.016,1.827,1.827,0,0,0,2.988,0,3.684,3.684,0,0,0,.5-2.012V10.7a3.676,3.676,0,0,0-.5-2,1.658,1.658,0,0,0-1.5-.785,1.626,1.626,0,0,0-1.48.785,3.722,3.722,0,0,0-.488,2Z" transform="translate(740 2203.107)" fill="#12263f"/>
    <path id="Trazado_889970" data-name="Trazado 889970" d="M17.57,9.883H13.117v3.6h5.25V15H11.219V3.625h7.094V5.148h-5.2V8.359H17.57Zm5.047,2.258.141.688H22.8l.148-.687,1.68-5.594h1.961l-3,8.453H21.945L18.93,6.547h1.961ZM32.766,15q-.1-.32-.168-.625a4.468,4.468,0,0,1-.09-.609,3.256,3.256,0,0,1-1.023,1,2.633,2.633,0,0,1-1.43.4,2.81,2.81,0,0,1-2.027-.68,2.468,2.468,0,0,1-.707-1.867,2.206,2.206,0,0,1,.969-1.91,4.678,4.678,0,0,1,2.727-.684h1.477V9.281a1.38,1.38,0,0,0-.387-1.039,1.547,1.547,0,0,0-1.121-.375,1.6,1.6,0,0,0-1.031.309.981.981,0,0,0-.383.8l-1.828.008-.008-.047a2.094,2.094,0,0,1,.895-1.773A3.79,3.79,0,0,1,31.1,6.391a3.617,3.617,0,0,1,2.383.75A2.64,2.64,0,0,1,34.391,9.3v3.758a6.93,6.93,0,0,0,.07,1,5.331,5.331,0,0,0,.227.941Zm-2.32-1.359a2.373,2.373,0,0,0,1.285-.359,1.81,1.81,0,0,0,.762-.82v-1.25H30.984a1.9,1.9,0,0,0-1.3.41,1.246,1.246,0,0,0-.469.965.984.984,0,0,0,.316.77A1.315,1.315,0,0,0,30.445,13.641ZM38.4,15H36.5V2.813h1.9Zm7.4-1.25a2.836,2.836,0,0,1-1,1.047,2.707,2.707,0,0,1-1.418.367,2.647,2.647,0,0,1-2.125-.895,4.206,4.206,0,0,1-.766-2.777V6.547h1.891v4.961a2.825,2.825,0,0,0,.352,1.66,1.3,1.3,0,0,0,1.094.449,2.442,2.442,0,0,0,1.152-.246,1.787,1.787,0,0,0,.73-.715V6.547h1.9V15H45.969ZM54.68,15q-.1-.32-.168-.625a4.468,4.468,0,0,1-.09-.609,3.256,3.256,0,0,1-1.023,1,2.633,2.633,0,0,1-1.43.4,2.81,2.81,0,0,1-2.027-.68,2.468,2.468,0,0,1-.707-1.867,2.206,2.206,0,0,1,.969-1.91,4.678,4.678,0,0,1,2.727-.684h1.477V9.281a1.38,1.38,0,0,0-.387-1.039A1.547,1.547,0,0,0,52.9,7.867a1.6,1.6,0,0,0-1.031.309.981.981,0,0,0-.383.8l-1.828.008-.008-.047a2.094,2.094,0,0,1,.895-1.773,3.79,3.79,0,0,1,2.473-.773,3.617,3.617,0,0,1,2.383.75A2.64,2.64,0,0,1,56.3,9.3v3.758a6.93,6.93,0,0,0,.07,1A5.331,5.331,0,0,0,56.6,15Zm-2.32-1.359a2.373,2.373,0,0,0,1.285-.359,1.81,1.81,0,0,0,.762-.82v-1.25H52.9a1.9,1.9,0,0,0-1.3.41,1.246,1.246,0,0,0-.469.965.984.984,0,0,0,.316.77A1.315,1.315,0,0,0,52.359,13.641Zm9.375.008a1.577,1.577,0,0,0,1.1-.406,1.33,1.33,0,0,0,.449-1.031H65l.016.047a2.549,2.549,0,0,1-.941,2.047,3.768,3.768,0,0,1-5.16-.348,4.633,4.633,0,0,1-.992-3.043v-.273A4.637,4.637,0,0,1,58.914,7.6a3.43,3.43,0,0,1,2.813-1.211,3.316,3.316,0,0,1,2.4.887,2.894,2.894,0,0,1,.891,2.254L65,9.578H63.281a1.715,1.715,0,0,0-.43-1.18,1.432,1.432,0,0,0-1.125-.484,1.549,1.549,0,0,0-1.461.785,3.885,3.885,0,0,0-.445,1.941v.273a3.921,3.921,0,0,0,.441,1.957A1.558,1.558,0,0,0,61.734,13.648ZM68.633,15h-1.9V6.547h1.9Zm0-10.523h-1.9V2.813h1.9ZM70.406,10.7a4.59,4.59,0,0,1,1.035-3.1,3.953,3.953,0,0,1,5.688,0,4.59,4.59,0,0,1,1.035,3.1v.164a4.583,4.583,0,0,1-1.035,3.105,3.967,3.967,0,0,1-5.687,0,4.587,4.587,0,0,1-1.035-3.1Zm1.9.164a3.75,3.75,0,0,0,.484,2.016,1.827,1.827,0,0,0,2.988,0,3.684,3.684,0,0,0,.5-2.012V10.7a3.676,3.676,0,0,0-.5-2,1.658,1.658,0,0,0-1.5-.785,1.626,1.626,0,0,0-1.48.785,3.722,3.722,0,0,0-.488,2Zm2.578-7.914h2.148l.016.047L74.914,5.023H73.391Zm6.656,3.6.109,1.219a3.023,3.023,0,0,1,1.043-1.012,2.783,2.783,0,0,1,1.418-.363,2.64,2.64,0,0,1,2.059.813,3.692,3.692,0,0,1,.738,2.539V15h-1.9V9.758a2.042,2.042,0,0,0-.383-1.4,1.5,1.5,0,0,0-1.156-.414,2.267,2.267,0,0,0-1.055.23,1.847,1.847,0,0,0-.711.637V15H79.8V6.547Zm14.133,5.063.188.844h.047l1.852-5.906h2.078l-3.5,9.734a4.34,4.34,0,0,1-.945,1.508,2.3,2.3,0,0,1-1.727.625,2.95,2.95,0,0,1-.5-.047q-.27-.047-.52-.109l.211-1.469.289.023q.188.016.281.016a1.042,1.042,0,0,0,.824-.352,2.988,2.988,0,0,0,.5-.812l.313-.766-3.07-8.352h2.07ZM16.652,34.891a5.574,5.574,0,0,1,.867-3.262,2.8,2.8,0,0,1,2.438-1.238,2.666,2.666,0,0,1,1.23.277,2.785,2.785,0,0,1,.941.793V26.813h1.9V39H22.488l-.227-1.07a2.82,2.82,0,0,1-.984.918,2.738,2.738,0,0,1-1.336.316,2.876,2.876,0,0,1-2.422-1.133,4.766,4.766,0,0,1-.867-2.977Zm1.9.164A3.4,3.4,0,0,0,19,36.922a1.573,1.573,0,0,0,1.426.7,1.906,1.906,0,0,0,1.02-.258,1.963,1.963,0,0,0,.684-.734V32.938a2,2,0,0,0-.687-.73,1.859,1.859,0,0,0-1-.262,1.531,1.531,0,0,0-1.43.816,4.308,4.308,0,0,0-.461,2.129Zm11.1,4.109A3.681,3.681,0,0,1,26.758,38a4.374,4.374,0,0,1-1.043-3.027v-.312a4.522,4.522,0,0,1,1.043-3.066,3.37,3.37,0,0,1,2.691-1.2,3.163,3.163,0,0,1,2.578,1.051A4.249,4.249,0,0,1,32.9,34.25v1.023H27.676l-.016.039A2.77,2.77,0,0,0,28.207,37a1.866,1.866,0,0,0,1.555.648,4.277,4.277,0,0,0,1.34-.187,3.825,3.825,0,0,0,1.051-.539l.617,1.242a4.023,4.023,0,0,1-1.281.711A5.37,5.37,0,0,1,29.652,39.164Zm-.2-7.25a1.467,1.467,0,0,0-1.187.535,2.652,2.652,0,0,0-.555,1.395l.016.039h3.3v-.148a2.134,2.134,0,0,0-.379-1.316A1.4,1.4,0,0,0,29.449,31.914Zm9.742,4.773a.875.875,0,0,0-.371-.723,3.838,3.838,0,0,0-1.4-.512,5.7,5.7,0,0,1-2.281-.9,1.893,1.893,0,0,1-.789-1.594,2.3,2.3,0,0,1,.9-1.816,3.56,3.56,0,0,1,2.367-.754,3.671,3.671,0,0,1,2.441.777,2.252,2.252,0,0,1,.887,1.871l-.016.047h-1.82a1.185,1.185,0,0,0-.406-.895,1.528,1.528,0,0,0-1.086-.379,1.552,1.552,0,0,0-1.047.313.977.977,0,0,0-.359.766.823.823,0,0,0,.336.688,3.682,3.682,0,0,0,1.383.461,5.727,5.727,0,0,1,2.344.918,1.939,1.939,0,0,1,.789,1.621,2.246,2.246,0,0,1-.941,1.863,3.965,3.965,0,0,1-2.48.723,3.786,3.786,0,0,1-2.6-.844,2.383,2.383,0,0,1-.906-1.937l.016-.047H35.91a1.266,1.266,0,0,0,.531,1.07,2.135,2.135,0,0,0,1.219.336,1.909,1.909,0,0,0,1.129-.289A.9.9,0,0,0,39.191,36.688Zm10.977-1.633a4.766,4.766,0,0,1-.867,2.977,2.868,2.868,0,0,1-2.414,1.133,2.99,2.99,0,0,1-1.273-.258,2.62,2.62,0,0,1-.953-.758v4.1h-1.9v-11.7h1.6l.188,1.063a2.819,2.819,0,0,1,.98-.906,2.743,2.743,0,0,1,1.332-.312A2.807,2.807,0,0,1,49.3,31.629a5.556,5.556,0,0,1,.871,3.262Zm-1.891-.164a4.118,4.118,0,0,0-.488-2.121,1.588,1.588,0,0,0-1.457-.824,1.893,1.893,0,0,0-1.008.254,1.869,1.869,0,0,0-.664.707v3.82a1.766,1.766,0,0,0,.664.684,2.024,2.024,0,0,0,1.023.238,1.629,1.629,0,0,0,1.449-.715,3.312,3.312,0,0,0,.48-1.879ZM53.848,39h-1.9V26.813h1.9ZM58,39H56.1V30.547H58Zm0-10.523H56.1V26.813H58Zm5.711,10.688A3.681,3.681,0,0,1,60.813,38a4.374,4.374,0,0,1-1.043-3.027v-.312a4.522,4.522,0,0,1,1.043-3.066,3.37,3.37,0,0,1,2.691-1.2,3.163,3.163,0,0,1,2.578,1.051,4.249,4.249,0,0,1,.875,2.809v1.023H61.73l-.016.039A2.77,2.77,0,0,0,62.262,37a1.866,1.866,0,0,0,1.555.648,4.277,4.277,0,0,0,1.34-.187,3.825,3.825,0,0,0,1.051-.539l.617,1.242a4.023,4.023,0,0,1-1.281.711A5.37,5.37,0,0,1,63.707,39.164Zm-.2-7.25a1.467,1.467,0,0,0-1.187.535,2.652,2.652,0,0,0-.555,1.395l.016.039h3.3v-.148a2.134,2.134,0,0,0-.379-1.316A1.4,1.4,0,0,0,63.5,31.914Zm4.7,2.977a5.574,5.574,0,0,1,.867-3.262A2.8,2.8,0,0,1,71.5,30.391a2.663,2.663,0,0,1,1.332.324,2.815,2.815,0,0,1,.973.934l.188-1.1h1.578V39a3.19,3.19,0,0,1-1.008,2.523,4.179,4.179,0,0,1-2.859.891,5.6,5.6,0,0,1-1.332-.176,6.188,6.188,0,0,1-1.293-.465l.3-1.492a4.81,4.81,0,0,0,1.082.379,5.465,5.465,0,0,0,1.223.137,2.169,2.169,0,0,0,1.508-.441A1.762,1.762,0,0,0,73.676,39v-.867a2.656,2.656,0,0,1-.941.77,2.836,2.836,0,0,1-1.246.262,2.876,2.876,0,0,1-2.422-1.133,4.766,4.766,0,0,1-.867-2.977Zm1.891.164a3.381,3.381,0,0,0,.453,1.867,1.583,1.583,0,0,0,1.43.7A1.945,1.945,0,0,0,73,37.363a1.874,1.874,0,0,0,.676-.73v-3.7a2.029,2.029,0,0,0-.684-.723,1.854,1.854,0,0,0-1-.262,1.537,1.537,0,0,0-1.437.816,4.308,4.308,0,0,0-.461,2.129Zm12.742,2.7a2.836,2.836,0,0,1-1,1.047,2.707,2.707,0,0,1-1.418.367,2.647,2.647,0,0,1-2.125-.895,4.206,4.206,0,0,1-.766-2.777V30.547H79.41v4.961a2.825,2.825,0,0,0,.352,1.66,1.3,1.3,0,0,0,1.094.449,2.442,2.442,0,0,0,1.152-.246,1.787,1.787,0,0,0,.73-.715V30.547h1.9V39H83Zm7.375,1.414A3.681,3.681,0,0,1,87.313,38a4.374,4.374,0,0,1-1.043-3.027v-.312a4.522,4.522,0,0,1,1.043-3.066A3.37,3.37,0,0,1,90,30.391a3.163,3.163,0,0,1,2.578,1.051,4.249,4.249,0,0,1,.875,2.809v1.023H88.23l-.016.039A2.77,2.77,0,0,0,88.762,37a1.866,1.866,0,0,0,1.555.648,4.277,4.277,0,0,0,1.34-.187,3.825,3.825,0,0,0,1.051-.539l.617,1.242a4.023,4.023,0,0,1-1.281.711A5.37,5.37,0,0,1,90.207,39.164Zm-.2-7.25a1.467,1.467,0,0,0-1.187.535,2.652,2.652,0,0,0-.555,1.395l.016.039h3.3v-.148a2.134,2.134,0,0,0-.379-1.316A1.4,1.4,0,0,0,90,31.914Z" transform="translate(850 2315.107)" fill="#12263f"/>
    <path id="Trazado_889971" data-name="Trazado 889971" d="M38.791,83.636H0V0H12.582V71.093H38.791v-9.41L65,76.84,38.791,92Z" transform="translate(542 2015.107)" fill="#03a9f4"/>
    <path id="Trazado_889972" data-name="Trazado 889972" d="M38.791,83.636H0V0H12.582V71.093H38.791v-9.41L65,76.84,38.791,92Z" transform="translate(652 2139.107)" fill="#03a9f4"/>
    <path id="Trazado_889973" data-name="Trazado 889973" d="M38.791,83.636H0V0H12.582V71.093H38.791v-9.41L65,76.84,38.791,92Z" transform="translate(762 2262.107)" fill="#03a9f4"/>
  </g>
</svg>
