<svg xmlns="http://www.w3.org/2000/svg" width="37" height="52" viewBox="0 0 37 52">
  <g id="Grupo_1106149" data-name="Grupo 1106149" transform="translate(-190 -1502)">
    <g id="Grupo_1106148" data-name="Grupo 1106148" transform="translate(-4.73 -4272.494)">
      <rect id="Rectángulo_402557" data-name="Rectángulo 402557" width="26" height="52" rx="5" transform="translate(194.73 5774.494)" fill="#acffac"/>
    </g>
    <g id="Grupo_1106147" data-name="Grupo 1106147">
      <circle id="Elipse_11830" data-name="Elipse 11830" cx="15" cy="15" r="15" transform="translate(197 1506)" fill="#fff"/>
      <g id="icono" transform="translate(187.979 1506.979)">
        <g id="Grupo_1106128" data-name="Grupo 1106128" transform="translate(6.463 2.324)">
          <g id="Grupo_1106123" data-name="Grupo 1106123">
            <path id="Trazado_889903" data-name="Trazado 889903" d="M9.691,19a3.392,3.392,0,0,0-.133.954,3.638,3.638,0,0,0,3.6,3.683,3.093,3.093,0,0,0,.372-.011,3.648,3.648,0,0,0,7.252-.516l.032-16.2a3.648,3.648,0,0,0-7.295-.079c0,.089,0,.171.01.26a3.559,3.559,0,0,0-1.357-.279,3.652,3.652,0,0,0-3.138,5.572A3.644,3.644,0,0,0,9.691,19Z" transform="translate(-6.629 -2.643)" fill="#ffd364"/>
            <path id="Trazado_889904" data-name="Trazado 889904" d="M16.981,27.127h-.059a4.216,4.216,0,0,1-4.022-3.08,4.22,4.22,0,0,1-4.092-4.272,3.745,3.745,0,0,1,.043-.59,4.213,4.213,0,0,1-2.388-3.854,4.267,4.267,0,0,1,1.649-3.3,4.237,4.237,0,0,1,3.9-5.965,4.166,4.166,0,0,1,.8.084,4.23,4.23,0,0,1,8.424.606L21.2,22.941a4.223,4.223,0,0,1-4.223,4.186Zm-3.613-4.255a.584.584,0,0,1,.576.495,3.053,3.053,0,0,0,2.992,2.593,3,3,0,0,0,2.18-.869,3.036,3.036,0,0,0,.92-2.157l.032-16.191a3.054,3.054,0,0,0-3.026-3.1,3.108,3.108,0,0,0-2.175.869,3.056,3.056,0,0,0-.926,2.159c0,.06,0,.126.007.2a.585.585,0,0,1-.235.524.593.593,0,0,1-.571.068,3,3,0,0,0-1.137-.234h-.031a3.068,3.068,0,0,0-2.607,4.68.583.583,0,0,1-.2.814A3.088,3.088,0,0,0,7.63,15.345a3.043,3.043,0,0,0,2.079,2.93.584.584,0,0,1,.377.713,2.814,2.814,0,0,0-.111.79A3.053,3.053,0,0,0,13,22.882a2.563,2.563,0,0,0,.324-.009Z" transform="translate(-6.463 -2.476)"/>
          </g>
          <g id="Grupo_1106124" data-name="Grupo 1106124" transform="translate(6.313 3.603)">
            <path id="Trazado_889905" data-name="Trazado 889905" d="M15.8,10.39a.582.582,0,0,1-.48-.252,4.2,4.2,0,0,1-.75-2.456.584.584,0,0,1,.584-.577h.007a.584.584,0,0,1,.577.591,3.043,3.043,0,0,0,.543,1.778.583.583,0,0,1-.148.812A.577.577,0,0,1,15.8,10.39Z" transform="translate(-14.574 -7.105)"/>
          </g>
          <g id="Grupo_1106125" data-name="Grupo 1106125" transform="translate(1.709 8.96)">
            <path id="Trazado_889906" data-name="Trazado 889906" d="M10.967,16.762a.577.577,0,0,1-.238-.051,4.265,4.265,0,0,1-2-1.861A.584.584,0,0,1,9.757,14.3a3.09,3.09,0,0,0,1.449,1.349.584.584,0,0,1-.239,1.117Z" transform="translate(-8.659 -13.988)"/>
          </g>
          <g id="Grupo_1106126" data-name="Grupo 1106126" transform="translate(6.279 17.321)">
            <path id="Trazado_889907" data-name="Trazado 889907" d="M15.149,28.932a.584.584,0,0,1-.577-.5A4.243,4.243,0,0,1,15.7,24.912a.584.584,0,1,1,.845.806A3.05,3.05,0,0,0,15.7,27.8a3.1,3.1,0,0,0,.03.47.584.584,0,0,1-.5.66A.505.505,0,0,1,15.149,28.932Z" transform="translate(-14.53 -24.732)"/>
          </g>
          <g id="Grupo_1106127" data-name="Grupo 1106127" transform="translate(2.341 13.115)">
            <path id="Trazado_889908" data-name="Trazado 889908" d="M10.055,24.1h-.007a.584.584,0,0,1-.577-.591,4.236,4.236,0,0,1,4.23-4.182h.05a.584.584,0,0,1,.577.591.619.619,0,0,1-.591.577,3.073,3.073,0,0,0-3.1,3.028A.584.584,0,0,1,10.055,24.1Z" transform="translate(-9.471 -19.327)"/>
          </g>
        </g>
        <g id="Grupo_1106129" data-name="Grupo 1106129" transform="translate(15.442 9.195)">
          <path id="Trazado_889909" data-name="Trazado 889909" d="M28.526,13.015v7.821a.96.96,0,0,1-.96.96H19.71a.96.96,0,0,1-.96-.96V13.015a.96.96,0,0,1,.96-.96h7.856A.96.96,0,0,1,28.526,13.015Z" transform="translate(-18.166 -11.471)" fill="#fff"/>
          <path id="Trazado_889910" data-name="Trazado 889910" d="M27.4,22.214H19.544A1.545,1.545,0,0,1,18,20.67V12.848A1.545,1.545,0,0,1,19.544,11.3H27.4a1.545,1.545,0,0,1,1.544,1.544V20.67A1.545,1.545,0,0,1,27.4,22.214Zm-7.856-9.742a.377.377,0,0,0-.376.376V20.67a.377.377,0,0,0,.376.376H27.4a.377.377,0,0,0,.376-.376V12.848a.377.377,0,0,0-.376-.376Z" transform="translate(-18 -11.305)"/>
        </g>
        <g id="Grupo_1106130" data-name="Grupo 1106130" transform="translate(25.218 8.469)">
          <path id="Trazado_889911" data-name="Trazado 889911" d="M34.161,14.092H31.145a.584.584,0,0,1,0-1.167h3.016a.132.132,0,0,0,.132-.132V10.955a.584.584,0,1,1,1.167,0v1.838A1.3,1.3,0,0,1,34.161,14.092Z" transform="translate(-30.561 -10.371)"/>
        </g>
        <g id="Grupo_1106131" data-name="Grupo 1106131" transform="translate(25.218 17.11)">
          <path id="Trazado_889912" data-name="Trazado 889912" d="M34.877,24.974a.584.584,0,0,1-.584-.584V22.774a.132.132,0,0,0-.132-.132H31.145a.584.584,0,1,1,0-1.167h3.016a1.3,1.3,0,0,1,1.3,1.3V24.39A.584.584,0,0,1,34.877,24.974Z" transform="translate(-30.561 -21.475)"/>
        </g>
        <g id="Grupo_1106132" data-name="Grupo 1106132" transform="translate(25.218 14.066)">
          <path id="Trazado_889913" data-name="Trazado 889913" d="M35.447,18.731h-4.3a.584.584,0,1,1,0-1.167h4.3a.584.584,0,0,1,0,1.167Z" transform="translate(-30.561 -17.563)"/>
        </g>
        <g id="Grupo_1106133" data-name="Grupo 1106133" transform="translate(29.52 12.291)">
          <path id="Trazado_889914" data-name="Trazado 889914" d="M40.381,17.811a1.771,1.771,0,1,1-1.771-1.779A1.776,1.776,0,0,1,40.381,17.811Z" transform="translate(-36.255 -15.449)" fill="#ff6f5c"/>
          <path id="Trazado_889915" data-name="Trazado 889915" d="M38.444,20A2.359,2.359,0,1,1,40.8,17.645,2.358,2.358,0,0,1,38.444,20Zm0-3.55a1.191,1.191,0,1,0,1.188,1.2A1.193,1.193,0,0,0,38.444,16.45Z" transform="translate(-36.089 -15.282)"/>
        </g>
        <g id="Grupo_1106134" data-name="Grupo 1106134" transform="translate(27.28 5.456)">
          <path id="Trazado_889916" data-name="Trazado 889916" d="M37.111,8.832A1.576,1.576,0,1,1,35.536,7.25,1.579,1.579,0,0,1,37.111,8.832Z" transform="translate(-33.376 -6.666)" fill="#986de7"/>
          <path id="Trazado_889917" data-name="Trazado 889917" d="M35.369,10.825a2.163,2.163,0,1,1,2.159-2.159A2.162,2.162,0,0,1,35.369,10.825Zm0-3.158a1,1,0,1,0,.992,1A1,1,0,0,0,35.369,7.667Z" transform="translate(-33.21 -6.5)"/>
        </g>
        <g id="Grupo_1106135" data-name="Grupo 1106135" transform="translate(27.344 19.376)">
          <path id="Trazado_889918" data-name="Trazado 889918" d="M37.255,26.749a1.606,1.606,0,1,1-1.606-1.613A1.61,1.61,0,0,1,37.255,26.749Z" transform="translate(-33.458 -24.552)" fill="#9fd25a"/>
          <path id="Trazado_889919" data-name="Trazado 889919" d="M35.482,28.773a2.193,2.193,0,1,1,2.19-2.19A2.193,2.193,0,0,1,35.482,28.773Zm0-3.22A1.026,1.026,0,1,0,36.5,26.582,1.027,1.027,0,0,0,35.482,25.553Z" transform="translate(-33.292 -24.386)"/>
        </g>
        <g id="Grupo_1106136" data-name="Grupo 1106136" transform="translate(17.807 12.083)">
          <path id="Trazado_889920" data-name="Trazado 889920" d="M24.422,20.657a.584.584,0,0,1-.584-.584V17a.816.816,0,1,0-1.632,0v3.074a.584.584,0,1,1-1.167,0V17a1.983,1.983,0,1,1,3.967,0v3.074A.584.584,0,0,1,24.422,20.657Z" transform="translate(-21.039 -15.016)"/>
        </g>
        <g id="Grupo_1106137" data-name="Grupo 1106137" transform="translate(17.807 14.584)">
          <path id="Trazado_889921" data-name="Trazado 889921" d="M24.422,19.4h-2.8a.584.584,0,0,1,0-1.167h2.8a.584.584,0,1,1,0,1.167Z" transform="translate(-21.039 -18.229)"/>
        </g>
        <g id="Grupo_1106138" data-name="Grupo 1106138" transform="translate(22.901 12.188)">
          <path id="Trazado_889922" data-name="Trazado 889922" d="M28.168,20.475a.584.584,0,0,1-.584-.584V15.734a.584.584,0,0,1,1.167,0v4.157A.584.584,0,0,1,28.168,20.475Z" transform="translate(-27.584 -15.15)"/>
        </g>
        <g id="Grupo_1106141" data-name="Grupo 1106141" transform="translate(18.095 1.79)">
          <g id="Grupo_1106139" data-name="Grupo 1106139" transform="translate(0.357)">
            <path id="Trazado_889923" data-name="Trazado 889923" d="M30.021,32.255a.583.583,0,0,1-.547-.381q-.113-.306-.193-.591A4.515,4.515,0,0,1,32.2,25.918a11.633,11.633,0,0,0,7.7-11.069A11.9,11.9,0,0,0,28.011,2.959a12.711,12.711,0,0,0-5.3,1.085A.584.584,0,1,1,22.189,3,13.74,13.74,0,0,1,28.03,1.792,13.067,13.067,0,0,1,41.068,14.848,12.79,12.79,0,0,1,32.6,27.015,3.3,3.3,0,0,0,30.4,30.969q.068.242.163.5a.583.583,0,0,1-.344.75A.577.577,0,0,1,30.021,32.255Z" transform="translate(-21.868 -1.79)"/>
          </g>
          <g id="Grupo_1106140" data-name="Grupo 1106140" transform="translate(0 23.717)">
            <path id="Trazado_889924" data-name="Trazado 889924" d="M24.207,39.011a.578.578,0,0,1-.2-.036.584.584,0,0,1-.344-.751,3.636,3.636,0,0,0-1.894-4.839.584.584,0,0,1,.452-1.077,4.754,4.754,0,0,1,2.537,6.324A.584.584,0,0,1,24.207,39.011Z" transform="translate(-21.409 -32.263)"/>
          </g>
        </g>
        <g id="Grupo_1106142" data-name="Grupo 1106142" transform="translate(17.591 29.513)">
          <path id="Trazado_889925" data-name="Trazado 889925" d="M32.66,38.862v4.3a1.954,1.954,0,0,1-1.954,1.953H23.464a1.953,1.953,0,0,1-1.953-1.953v-4.3a.7.7,0,0,1,.7-.7h9.747A.7.7,0,0,1,32.66,38.862Z" transform="translate(-20.927 -37.577)" fill="#debefb"/>
          <path id="Trazado_889926" data-name="Trazado 889926" d="M30.54,45.538H23.3A2.54,2.54,0,0,1,20.761,43V38.7a1.286,1.286,0,0,1,1.284-1.284h9.747A1.286,1.286,0,0,1,33.077,38.7V43A2.54,2.54,0,0,1,30.54,45.538Zm-8.495-6.959a.117.117,0,0,0-.117.117V43a1.371,1.371,0,0,0,1.37,1.37H30.54A1.371,1.371,0,0,0,31.91,43V38.7a.117.117,0,0,0-.117-.117Z" transform="translate(-20.761 -37.411)"/>
        </g>
        <g id="Grupo_1106145" data-name="Grupo 1106145" transform="translate(15.908 31.816)">
          <g id="Grupo_1106143" data-name="Grupo 1106143">
            <path id="Trazado_889927" data-name="Trazado 889927" d="M33.7,41.538H19.182a.584.584,0,1,1,0-1.167H33.7a.584.584,0,1,1,0,1.167Z" transform="translate(-18.599 -40.37)"/>
          </g>
          <g id="Grupo_1106144" data-name="Grupo 1106144" transform="translate(0 2.353)">
            <path id="Trazado_889928" data-name="Trazado 889928" d="M33.7,44.561H19.182a.584.584,0,1,1,0-1.167H33.7a.584.584,0,1,1,0,1.167Z" transform="translate(-18.599 -43.394)"/>
          </g>
        </g>
        <g id="Grupo_1106146" data-name="Grupo 1106146" transform="translate(20.364 36.472)">
          <path id="Trazado_889929" data-name="Trazado 889929" d="M30.294,47.1a2.61,2.61,0,1,1-5.22,0Z" transform="translate(-24.491 -46.519)" fill="#fff"/>
          <path id="Trazado_889930" data-name="Trazado 889930" d="M27.521,50.133a3.2,3.2,0,0,1-3.2-3.2.584.584,0,0,1,.584-.584h5.22a.584.584,0,0,1,.584.584A3.2,3.2,0,0,1,27.521,50.133ZM25.577,47.52a2.026,2.026,0,0,0,3.882,0Z" transform="translate(-24.324 -46.353)"/>
        </g>
      </g>
    </g>
  </g>
</svg>
